<svg width="19" height="15" viewBox="0 0 19 15" fill="none" xmlns="http://www.w3.org/2000/svg">
<path fill-rule="evenodd" clip-rule="evenodd" d="M18.5 0V15H0.5V10.8059L5.391 8.77877L8.48871 10.5212L12.4357 6.40746L17.527 10.1661V0.957722H1.47297V7.95298H0.5V0H18.5ZM17.527 14.0423V11.3632L12.5467 7.68658L8.67053 11.7265L5.32558 9.84504L1.47297 11.4418V14.0423H17.527Z" fill="#111111"/>
<path fill-rule="evenodd" clip-rule="evenodd" d="M4.668 5.20097C4.668 6.20166 5.49214 7.01288 6.50876 7.01288C7.52539 7.01288 8.34952 6.20166 8.34952 5.20097C8.34952 4.20028 7.52539 3.38906 6.50876 3.38906C5.49214 3.38906 4.668 4.20028 4.668 5.20097ZM5.64098 5.20097C5.64098 5.67273 6.0295 6.05516 6.50876 6.05516C6.98803 6.05516 7.37655 5.67273 7.37655 5.20097C7.37655 4.72922 6.98803 4.34679 6.50876 4.34679C6.0295 4.34679 5.64098 4.72922 5.64098 5.20097Z" fill="#111111"/>
</svg>
