<svg width="24" height="24" viewBox="0 0 24 24" fill="none" xmlns="http://www.w3.org/2000/svg">
<path fill-rule="evenodd" clip-rule="evenodd" d="M22 12C22 17.5228 17.5228 22 12 22C6.47715 22 2 17.5228 2 12C2 6.47715 6.47715 2 12 2C17.5228 2 22 6.47715 22 12ZM17.4521 18.5214C15.9763 19.7565 14.075 20.5 12 20.5C7.30558 20.5 3.5 16.6944 3.5 12C3.5 9.9249 4.2436 8.02347 5.47886 6.54764L17.4521 18.5214ZM18.5138 17.4611L6.53883 5.48625C8.01589 4.24656 9.92076 3.5 12 3.5C16.6944 3.5 20.5 7.30558 20.5 12C20.5 14.0792 19.7535 15.984 18.5138 17.4611Z" fill="#121212"/>
</svg>
