<svg width="24" height="24" viewBox="0 0 24 24" fill="none" xmlns="http://www.w3.org/2000/svg">
<path d="M10.2314 12.3469H20.1134V11.5469H10.2314V12.3469Z" fill="black"/>
<path fill-rule="evenodd" clip-rule="evenodd" d="M11.0638 18.9738V13.0453H10.2638V19.0256L10.2669 19.0503C10.3464 19.6867 10.7373 20.2027 11.1638 20.5492C11.5823 20.8892 12.1077 21.1246 12.5444 21.1246H17.909L17.9444 21.1181C18.7096 20.979 19.2385 20.6663 19.5906 20.269C19.9389 19.8759 20.0874 19.4304 20.1481 19.0664L20.1535 19.0338V17.9094H21.5239C21.7697 17.9094 22.1598 17.8471 22.4881 17.5313C22.82 17.2121 23.021 16.6995 23.021 15.9423C23.021 14.4044 22.168 13.7805 21.5239 13.7805H20.1535L20.1535 13.0453L19.3535 13.0453L19.3535 18.966C19.3069 19.2206 19.2042 19.4987 18.9918 19.7384C18.7786 19.979 18.4289 20.2105 17.8358 20.3246H12.5444C12.3542 20.3246 12.002 20.1995 11.6683 19.9283C11.3492 19.6691 11.1163 19.332 11.0638 18.9738ZM21.5239 17.1094H20.1535V14.5805H21.5239C21.6113 14.5805 22.221 14.7218 22.221 15.9423C22.221 16.5642 22.0579 16.8351 21.9336 16.9547C21.8056 17.0778 21.6472 17.1094 21.5239 17.1094Z" fill="black"/>
<path d="M10.9861 3.59377L6.53982 3.59378V2.79981L10.9861 2.7998V3.59377Z" fill="black"/>
<path fill-rule="evenodd" clip-rule="evenodd" d="M8.58699 12.2247C9.86813 12.2247 10.9067 11.1861 10.9067 9.90495C10.9067 8.62381 9.86813 7.58524 8.58699 7.58524C7.30585 7.58524 6.26728 8.62381 6.26728 9.90495C6.26728 11.1861 7.30585 12.2247 8.58699 12.2247ZM8.58699 11.5109C9.47393 11.5109 10.1929 10.7919 10.1929 9.90495C10.1929 9.01801 9.47393 8.299 8.58699 8.299C7.70005 8.299 6.98104 9.01801 6.98104 9.90495C6.98104 10.7919 7.70005 11.5109 8.58699 11.5109Z" fill="black"/>
<path d="M1.90039 4.51241V15.2972H2.76317V5.3752H14.8421V11.6469H15.7049V4.51241H1.90039Z" fill="black"/>
<path d="M10.2641 14.4344V15.2972H5.9986V14.4344H10.2641Z" fill="black"/>
</svg>
