<svg width="24" height="24" viewBox="0 0 24 24" fill="none" xmlns="http://www.w3.org/2000/svg">
<path d="M9.19978 4.90039L14.7998 4.90039V3.90039L9.19978 3.90039V4.90039Z" fill="black"/>
<path d="M3.35645 6.05706H20.7431V19.6404H8.51811V18.5537H19.6564V7.14372H4.44311V19.6404H3.35645V6.05706Z" fill="black"/>
<path fill-rule="evenodd" clip-rule="evenodd" d="M11.7781 16.0976C13.5723 16.0976 15.0267 14.6432 15.0267 12.849C15.0267 11.0548 13.5723 9.60039 11.7781 9.60039C9.98397 9.60039 8.52952 11.0548 8.52952 12.849C8.52952 14.6432 9.98397 16.0976 11.7781 16.0976ZM11.7781 15.098C13.0202 15.098 14.0272 14.0911 14.0272 12.849C14.0272 11.6069 13.0202 10.6 11.7781 10.6C10.536 10.6 9.52909 11.6069 9.52909 12.849C9.52909 14.0911 10.536 15.098 11.7781 15.098Z" fill="black"/>
</svg>
