<svg width="24" height="24" viewBox="0 0 24 24" fill="none" xmlns="http://www.w3.org/2000/svg">
<path d="M9.20002 4.9L14.8 4.9V3.9L9.20002 3.9V4.9Z" fill="black"/>
<path d="M3.35669 6.05667H20.7434V19.64H8.51836V18.5533H19.6567V7.14333H4.44336V19.64H3.35669V6.05667Z" fill="black"/>
<path fill-rule="evenodd" clip-rule="evenodd" d="M11.7784 16.0972C13.5725 16.0972 15.027 14.6428 15.027 12.8486C15.027 11.0545 13.5725 9.6 11.7784 9.6C9.98421 9.6 8.52976 11.0545 8.52976 12.8486C8.52976 14.6428 9.98421 16.0972 11.7784 16.0972ZM11.7784 15.0976C13.0205 15.0976 14.0274 14.0907 14.0274 12.8486C14.0274 11.6065 13.0205 10.5996 11.7784 10.5996C10.5363 10.5996 9.52933 11.6065 9.52933 12.8486C9.52933 14.0907 10.5363 15.0976 11.7784 15.0976Z" fill="black"/>
</svg>
