<svg width="21" height="21" viewBox="0 0 21 21" fill="none" xmlns="http://www.w3.org/2000/svg">
<path fill-rule="evenodd" clip-rule="evenodd" d="M10.5 1C5.25329 1 1 5.25329 1 10.5C1 15.7467 5.25329 20 10.5 20C15.7467 20 20 15.7467 20 10.5C20 5.25329 15.7467 1 10.5 1ZM0 10.5C0 4.70101 4.70101 0 10.5 0C16.299 0 21 4.70101 21 10.5C21 16.299 16.299 21 10.5 21C4.70101 21 0 16.299 0 10.5Z" fill="white"/>
<path fill-rule="evenodd" clip-rule="evenodd" d="M16.2817 7.7027L10 14.0629L5.57018 9.5777L6.28167 8.875L10 12.6398L15.5702 7L16.2817 7.7027Z" fill="white"/>
<path fill-rule="evenodd" clip-rule="evenodd" d="M10.5 1C5.25329 1 1 5.25329 1 10.5C1 15.7467 5.25329 20 10.5 20C15.7467 20 20 15.7467 20 10.5C20 5.25329 15.7467 1 10.5 1ZM10 14.0629L16.2817 7.7027L15.5702 7L10 12.6398L6.28167 8.875L5.57018 9.5777L10 14.0629Z" fill="#FF4412"/>
</svg>
