<svg width="18" height="18" viewBox="0 0 18 18" fill="none" xmlns="http://www.w3.org/2000/svg">
<path fill-rule="evenodd" clip-rule="evenodd" d="M16 1H2C1.44772 1 1 1.44772 1 2V16C1 16.5523 1.44772 17 2 17H16C16.5523 17 17 16.5523 17 16V2C17 1.44772 16.5523 1 16 1ZM2 0C0.895431 0 0 0.89543 0 2V16C0 17.1046 0.89543 18 2 18H16C17.1046 18 18 17.1046 18 16V2C18 0.895431 17.1046 0 16 0H2Z" fill="#FF4412"/>
<path fill-rule="evenodd" clip-rule="evenodd" d="M14.4625 6.45648L8.07414 12.9247L3.5376 8.33148L4.46253 7.41797L8.07414 11.0747L13.5376 5.54297L14.4625 6.45648Z" fill="#FF4412"/>
<path fill-rule="evenodd" clip-rule="evenodd" d="M2 1H16C16.5523 1 17 1.44772 17 2V16C17 16.5523 16.5523 17 16 17H2C1.44772 17 1 16.5523 1 16V2C1 1.44772 1.44772 1 2 1ZM14.4625 6.45648L8.07414 12.9247L3.5376 8.33148L4.46253 7.41797L8.07414 11.0747L13.5376 5.54297L14.4625 6.45648Z" fill="#FFF7F5"/>
</svg>
