<svg width="24" height="24" viewBox="0 0 24 24" fill="none" xmlns="http://www.w3.org/2000/svg">
<path d="M12 4C14.1217 4 16.1566 4.84285 17.6569 6.34315C19.1571 7.84344 20 9.87827 20 12C20 14.1217 19.1571 16.1566 17.6569 17.6569C16.1566 19.1571 14.1217 20 12 20C9.87827 20 7.84344 19.1571 6.34315 17.6569C4.84285 16.1566 4 14.1217 4 12C4 9.87827 4.84285 7.84344 6.34315 6.34315C7.84344 4.84285 9.87827 4 12 4ZM12 4.84211C10.1016 4.84211 8.28097 5.59624 6.9386 6.9386C5.59624 8.28097 4.84211 10.1016 4.84211 12C4.84211 13.8984 5.59624 15.719 6.9386 17.0614C8.28097 18.4038 10.1016 19.1579 12 19.1579C12.94 19.1579 13.8708 18.9728 14.7392 18.613C15.6076 18.2533 16.3967 17.7261 17.0614 17.0614C17.7261 16.3967 18.2533 15.6076 18.613 14.7392C18.9728 13.8708 19.1579 12.94 19.1579 12C19.1579 10.1016 18.4038 8.28097 17.0614 6.9386C15.719 5.59624 13.8984 4.84211 12 4.84211ZM11.5 6.5H12.3421V12.0905L15.5 14L15.0789 14.7326L11.5 12.5789V6.5Z" fill="#111111"/>
</svg>
