<svg width="24" height="24" viewBox="0 0 24 24" fill="none" xmlns="http://www.w3.org/2000/svg">
<path fill-rule="evenodd" clip-rule="evenodd" d="M4.56994 3.90039L7.50602 16.1025L8.38875 15.8901L5.72223 4.80826H17.7825L15.2418 15.8949L16.1268 16.0977L16.9385 12.5559C18.7042 12.5757 19.9141 11.8623 20.6918 10.9126C21.5043 9.92018 21.8228 8.69972 21.8717 7.86898L21.9 7.38836H18.1227L18.922 3.90039H4.56994ZM17.9146 8.29624L17.1468 11.6467C18.5211 11.6114 19.4123 11.0421 19.9893 10.3374C20.5121 9.69881 20.7913 8.92931 20.9063 8.29624H17.9146Z" fill="#111111"/>
<path d="M2.5 16.5058H21.219V17.4137H2.5V16.5058Z" fill="#111111"/>
<path d="M5.29522 17.7423V20.1004H18.3864V17.7423H17.4327V19.1468H6.24888V17.7423H5.29522Z" fill="#111111"/>
</svg>
