<svg width="18" height="18" viewBox="0 0 18 18" fill="none" xmlns="http://www.w3.org/2000/svg">
<path d="M6.65014 3.10496V0H7.65836V3.10496H6.65014Z" fill="#111111"/>
<path d="M3.70142 3.131V1.20317H4.70964V3.131H3.70142Z" fill="#111111"/>
<path fill-rule="evenodd" clip-rule="evenodd" d="M1.57968 6.98656V15.0917C1.6504 15.5915 1.96617 16.0591 2.39504 16.4168C2.84243 16.79 3.31756 16.965 3.57953 16.965H10.6274C11.4239 16.8082 11.8963 16.4886 12.1852 16.154C12.4731 15.8205 12.6115 15.4339 12.6739 15.0816L12.6739 6.98658L13.6822 6.98659L13.6822 8.02115H15.5352C16.3729 8.02115 17.5 8.85628 17.5 10.9466C17.5 11.9857 17.2162 12.6666 16.7729 13.0868C16.3415 13.4958 15.8417 13.5758 15.5882 13.6033L15.5618 13.6061H13.6822V15.1691L13.6753 15.2113C13.5951 15.7052 13.399 16.3084 12.9398 16.8404C12.4758 17.3779 11.7776 17.8025 10.7643 17.9917L10.7195 18H3.57953C3.00685 18 2.31345 17.6823 1.75926 17.2201C1.195 16.7495 0.680062 16.0504 0.575349 15.1905L0.571457 15.1585V6.98656H1.57968ZM13.6822 12.5712H15.5073C15.69 12.5492 15.9086 12.4973 16.0889 12.3264C16.2658 12.1587 16.4918 11.7925 16.4918 10.9466C16.4918 9.26699 15.6713 9.05613 15.5352 9.05613H13.6822V12.5712Z" fill="#111111"/>
<path d="M9.32193 1.24198V3.16981H10.3301V1.24198H9.32193Z" fill="#111111"/>
<path d="M0.5 6.00292H13.6573V4.96794H0.5V6.00292Z" fill="#111111"/>
</svg>
