<svg width="24" height="24" viewBox="0 0 24 24" fill="none" xmlns="http://www.w3.org/2000/svg">
<path d="M16.3993 11.5502V2.80019H1.99927V9.26506H2.79927V3.60019H15.5993V11.038L11.5428 7.99569L8.38938 11.3346L5.91805 9.92243L1.99927 11.5724V14.9948H10.4316V14.1948H2.79927V12.1036L5.86427 10.8131L8.53888 12.3414L11.6341 9.06416L14.9488 11.5502L10.3997 11.5502V12.3502H20.2816V11.5502L16.3993 11.5502Z" fill="black"/>
<path fill-rule="evenodd" clip-rule="evenodd" d="M6.81006 8.5298C5.99806 8.5298 5.33979 7.87153 5.33979 7.05953C5.33979 6.24752 5.99806 5.58926 6.81006 5.58926C7.62207 5.58926 8.28033 6.24752 8.28033 7.05953C8.28033 7.87153 7.62207 8.5298 6.81006 8.5298ZM6.81006 7.7298C6.43988 7.7298 6.13979 7.42971 6.13979 7.05953C6.13979 6.68935 6.43988 6.38926 6.81006 6.38926C7.18024 6.38926 7.48033 6.68935 7.48033 7.05953C7.48033 7.42971 7.18024 7.7298 6.81006 7.7298Z" fill="black"/>
<path fill-rule="evenodd" clip-rule="evenodd" d="M11.232 13.0486V18.9771C11.2845 19.3353 11.5175 19.6724 11.8365 19.9316C12.1702 20.2028 12.5225 20.3279 12.7126 20.3279H18.004C18.5971 20.2138 18.9468 19.9823 19.1601 19.7417C19.3724 19.502 19.4751 19.2239 19.5217 18.9694L19.5217 13.0486L20.3217 13.0486L20.3217 13.7838H21.6921C22.3362 13.7838 23.1892 14.4077 23.1892 15.9456C23.1892 16.7028 22.9883 17.2154 22.6563 17.5346C22.328 17.8504 21.9379 17.9128 21.6921 17.9128H20.3217V19.0371L20.3163 19.0697C20.2556 19.4338 20.1071 19.8792 19.7588 20.2723C19.4067 20.6696 18.8778 20.9823 18.1127 21.1215L18.0772 21.1279H12.7126C12.2759 21.1279 11.7505 20.8926 11.332 20.5525C10.9055 20.206 10.5146 19.69 10.4351 19.0536L10.432 19.0289V13.0486H11.232ZM20.3217 17.1128H21.6921C21.8155 17.1128 21.9738 17.0811 22.1018 16.958C22.2261 16.8385 22.3892 16.5675 22.3892 15.9456C22.3892 14.7252 21.7795 14.5838 21.6921 14.5838H20.3217V17.1128Z" fill="black"/>
</svg>
