<svg width="24" height="24" viewBox="0 0 24 24" fill="none" xmlns="http://www.w3.org/2000/svg">
<path d="M16.399 11.5498V2.7998H1.99902V9.26467H2.79902V3.5998H15.599V11.0376L11.5426 7.9953L8.38914 11.3342L5.91781 9.92204L1.99902 11.5721V14.9944H10.4313V14.1944H2.79902V12.1032L5.86402 10.8127L8.53864 12.3411L11.6339 9.06377L14.9486 11.5498L10.3994 11.5498V12.3498H20.2814V11.5498L16.399 11.5498Z" fill="#111111"/>
<path fill-rule="evenodd" clip-rule="evenodd" d="M6.80982 8.52941C5.99781 8.52941 5.33955 7.87114 5.33955 7.05914C5.33955 6.24713 5.99781 5.58887 6.80982 5.58887C7.62183 5.58887 8.28009 6.24713 8.28009 7.05914C8.28009 7.87114 7.62183 8.52941 6.80982 8.52941ZM6.80982 7.72941C6.43964 7.72941 6.13955 7.42932 6.13955 7.05914C6.13955 6.68896 6.43964 6.38887 6.80982 6.38887C7.18 6.38887 7.48009 6.68896 7.48009 7.05914C7.48009 7.42932 7.18 7.72941 6.80982 7.72941Z" fill="#111111"/>
<path fill-rule="evenodd" clip-rule="evenodd" d="M11.2317 13.0482V18.9767C11.2843 19.3349 11.5172 19.672 11.8362 19.9312C12.17 20.2024 12.5222 20.3275 12.7124 20.3275H18.0038C18.5968 20.2134 18.9466 19.9819 19.1598 19.7413C19.3722 19.5016 19.4749 19.2235 19.5215 18.969L19.5215 13.0483L20.3215 13.0483L20.3215 13.7834H21.6919C22.3359 13.7834 23.1889 14.4073 23.1889 15.9452C23.1889 16.7024 22.988 17.215 22.6561 17.5343C22.3278 17.85 21.9376 17.9124 21.6919 17.9124H20.3215V19.0367L20.3161 19.0694C20.2554 19.4334 20.1069 19.8788 19.7585 20.2719C19.4064 20.6692 18.8775 20.982 18.1124 21.1211L18.0769 21.1275H12.7124C12.2757 21.1275 11.7503 20.8922 11.3318 20.5521C10.9053 20.2056 10.5144 19.6896 10.4348 19.0532L10.4317 19.0285V13.0482H11.2317ZM20.3215 17.1124H21.6919C21.8152 17.1124 21.9736 17.0807 22.1015 16.9577C22.2259 16.8381 22.3889 16.5671 22.3889 15.9452C22.3889 14.7248 21.7792 14.5834 21.6919 14.5834H20.3215V17.1124Z" fill="#111111"/>
</svg>
