<svg width="24" height="24" viewBox="0 0 24 24" fill="none" xmlns="http://www.w3.org/2000/svg">
<path d="M6.53884 3.59378L10.9851 3.59377V2.7998H6.53884V3.59378Z" fill="#111111"/>
<path fill-rule="evenodd" clip-rule="evenodd" d="M10.9057 9.90495C10.9057 11.1861 9.86715 12.2247 8.58601 12.2247C7.30488 12.2247 6.26631 11.1861 6.26631 9.90495C6.26631 8.62381 7.30488 7.58524 8.58601 7.58524C9.86715 7.58524 10.9057 8.62381 10.9057 9.90495ZM10.192 9.90495C10.192 10.7919 9.47296 11.5109 8.58601 11.5109C7.69907 11.5109 6.98006 10.7919 6.98006 9.90495C6.98006 9.01801 7.69907 8.299 8.58601 8.299C9.47296 8.299 10.192 9.01801 10.192 9.90495Z" fill="#111111"/>
<path d="M1.89941 4.51241V15.2972H2.76219V5.3752H14.8411V11.5469H10.2305V12.3469H20.1125V11.5469H15.7039V4.51241H1.89941Z" fill="#111111"/>
<path fill-rule="evenodd" clip-rule="evenodd" d="M10.2628 15.2972H5.99762V14.4344H10.2628V13.0453H11.0628V18.9738C11.1153 19.332 11.3483 19.6691 11.6673 19.9283C12.001 20.1995 12.3533 20.3246 12.5434 20.3246H17.8348C18.4279 20.2105 18.7777 19.979 18.9909 19.7384C19.2033 19.4987 19.306 19.2206 19.3526 18.966L19.3526 13.0453L20.1526 13.0453L20.1526 13.7805H21.523C22.167 13.7805 23.02 14.4044 23.02 15.9423C23.02 16.6995 22.8191 17.2121 22.4871 17.5313C22.1588 17.8471 21.7687 17.9094 21.523 17.9094H20.1526V19.0338L20.1471 19.0664C20.0864 19.4304 19.9379 19.8759 19.5896 20.269C19.2375 20.6663 18.7086 20.979 17.9435 21.1181L17.908 21.1246H12.5434C12.1067 21.1246 11.5813 20.8892 11.1628 20.5492C10.7363 20.2027 10.3454 19.6867 10.2659 19.0503L10.2628 19.0256V15.2972ZM20.1526 17.1094H21.523C21.6463 17.1094 21.8047 17.0778 21.9326 16.9547C22.0569 16.8351 22.22 16.5642 22.22 15.9423C22.22 14.7218 21.6103 14.5805 21.523 14.5805H20.1526V17.1094Z" fill="#111111"/>
</svg>
