<svg width="25" height="24" viewBox="0 0 25 24" fill="none" xmlns="http://www.w3.org/2000/svg">
<path d="M11.6501 6.10496V3H12.6584V6.10496H11.6501Z" fill="#111111"/>
<path d="M8.70142 6.131V4.20317H9.70964V6.131H8.70142Z" fill="#111111"/>
<path fill-rule="evenodd" clip-rule="evenodd" d="M6.57968 9.98656V18.0917C6.6504 18.5915 6.96617 19.0591 7.39504 19.4168C7.84243 19.79 8.31756 19.965 8.57953 19.965H15.6274C16.4239 19.8082 16.8963 19.4886 17.1852 19.154C17.4731 18.8205 17.6115 18.4339 17.6739 18.0816L17.6739 9.98658L18.6822 9.98659L18.6822 11.0211H20.5352C21.3729 11.0211 22.5 11.8563 22.5 13.9466C22.5 14.9857 22.2162 15.6666 21.7729 16.0868C21.3415 16.4958 20.8417 16.5758 20.5882 16.6033L20.5618 16.6061H18.6822V18.1691L18.6753 18.2113C18.5951 18.7052 18.399 19.3084 17.9398 19.8404C17.4758 20.3779 16.7776 20.8025 15.7643 20.9917L15.7195 21H8.57953C8.00685 21 7.31345 20.6823 6.75926 20.2201C6.195 19.7495 5.68006 19.0504 5.57535 18.1905L5.57146 18.1585V9.98656H6.57968ZM18.6822 15.5712H20.5073C20.69 15.5492 20.9086 15.4973 21.0889 15.3264C21.2658 15.1587 21.4918 14.7925 21.4918 13.9466C21.4918 12.267 20.6713 12.0561 20.5352 12.0561H18.6822V15.5712Z" fill="#111111"/>
<path d="M14.3219 4.24198V6.16981H15.3301V4.24198H14.3219Z" fill="#111111"/>
<path d="M5.5 9.00292H18.6573V7.96794H5.5V9.00292Z" fill="#111111"/>
</svg>
