<svg width="24" height="24" viewBox="0 0 24 24" fill="none" xmlns="http://www.w3.org/2000/svg">
<path d="M6.53909 3.59416L10.9853 3.59416V2.80019H6.53909V3.59416Z" fill="black"/>
<path fill-rule="evenodd" clip-rule="evenodd" d="M10.906 9.90534C10.906 11.1865 9.8674 12.225 8.58626 12.225C7.30512 12.225 6.26655 11.1865 6.26655 9.90534C6.26655 8.6242 7.30512 7.58563 8.58626 7.58563C9.8674 7.58563 10.906 8.6242 10.906 9.90534ZM10.1922 9.90534C10.1922 10.7923 9.4732 11.5113 8.58626 11.5113C7.69932 11.5113 6.98031 10.7923 6.98031 9.90534C6.98031 9.0184 7.69932 8.29939 8.58626 8.29939C9.4732 8.29939 10.1922 9.0184 10.1922 9.90534Z" fill="black"/>
<path d="M1.89966 4.5128V15.2976H2.76244V5.37558H14.8414V11.5473H10.2307V12.3473H20.1127V11.5473H15.7042V4.5128H1.89966Z" fill="black"/>
<path fill-rule="evenodd" clip-rule="evenodd" d="M10.263 15.2976H5.99787V14.4348H10.263V13.0457H11.063V18.9742C11.1156 19.3324 11.3485 19.6695 11.6675 19.9287C12.0013 20.1999 12.3535 20.325 12.5437 20.325H17.8351C18.4281 20.2109 18.7779 19.9794 18.9911 19.7388C19.2035 19.4991 19.3062 19.221 19.3528 18.9664L19.3528 13.0457L20.1528 13.0457L20.1528 13.7809H21.5232C22.1672 13.7809 23.0202 14.4048 23.0202 15.9426C23.0202 16.6999 22.8193 17.2125 22.4874 17.5317C22.159 17.8475 21.7689 17.9098 21.5232 17.9098H20.1528V19.0342L20.1474 19.0668C20.0867 19.4308 19.9382 19.8763 19.5898 20.2694C19.2377 20.6667 18.7088 20.9794 17.9437 21.1185L17.9082 21.125H12.5437C12.107 21.125 11.5816 20.8896 11.1631 20.5496C10.7366 20.2031 10.3457 19.687 10.2661 19.0507L10.263 19.026V15.2976ZM20.1528 17.1098H21.5232C21.6465 17.1098 21.8049 17.0781 21.9328 16.9551C22.0572 16.8355 22.2202 16.5646 22.2202 15.9426C22.2202 14.7222 21.6105 14.5809 21.5232 14.5809H20.1528V17.1098Z" fill="black"/>
</svg>
