<svg width="24" height="24" viewBox="0 0 24 24" fill="none" xmlns="http://www.w3.org/2000/svg">
<path fill-rule="evenodd" clip-rule="evenodd" d="M16.4063 4.40004L11.3185 11.5559L6.99535 19.2609C6.70635 19.0778 6.43688 18.8756 6.18755 18.6569C3.8445 16.6017 3.28016 13.0904 5.00004 10.3745L7.51995 6.39535C9.23982 3.67948 12.6553 2.68852 15.5149 3.92796C15.8192 4.05986 16.1172 4.21702 16.4063 4.40004ZM10.4725 11.0199L14.9199 4.76476C12.5466 3.8458 9.77804 4.69869 8.36479 6.93036L5.84488 10.9096C4.43156 13.1413 4.84428 16.009 6.68991 17.7616L10.4725 11.0199Z" fill="black"/>
<path fill-rule="evenodd" clip-rule="evenodd" d="M17.101 4.68947L13.0741 12.0728L7.69008 19.5503C7.97968 19.7337 8.27871 19.89 8.58421 20.0199C11.3186 21.1825 14.5706 20.2289 16.2121 17.6368L19.0145 13.2115C20.6559 10.6196 20.1279 7.27244 17.9084 5.29755C17.6602 5.0767 17.3908 4.87302 17.101 4.68947ZM13.9221 12.6065L17.4142 6.2037C19.1289 7.87514 19.5019 10.5727 18.1697 12.6765L15.3673 17.1018C14.0337 19.2076 11.4319 20.0231 9.18635 19.1836L13.9221 12.6065Z" fill="black"/>
</svg>
