<svg width="24" height="24" viewBox="0 0 24 24" fill="none" xmlns="http://www.w3.org/2000/svg">
<path fill-rule="evenodd" clip-rule="evenodd" d="M16.4063 4.40043L11.3185 11.5563L6.99535 19.2612C6.70635 19.0782 6.43688 18.876 6.18755 18.6573C3.8445 16.6021 3.28016 13.0908 5.00004 10.3749L7.51995 6.39574C9.23982 3.67987 12.6553 2.68891 15.5149 3.92835C15.8192 4.06025 16.1172 4.21741 16.4063 4.40043ZM10.4725 11.0203L14.9199 4.76515C12.5466 3.84619 9.77804 4.69908 8.36479 6.93075L5.84488 10.9099C4.43156 13.1417 4.84428 16.0094 6.68991 17.762L10.4725 11.0203Z" fill="black"/>
<path fill-rule="evenodd" clip-rule="evenodd" d="M17.101 4.68986L13.0741 12.0732L7.69008 19.5507C7.97968 19.7341 8.27871 19.8904 8.58421 20.0203C11.3186 21.1829 14.5706 20.2293 16.2121 17.6372L19.0145 13.2119C20.6559 10.62 20.1279 7.27283 17.9084 5.29795C17.6602 5.07709 17.3908 4.87341 17.101 4.68986ZM13.9221 12.6069L17.4142 6.20409C19.1289 7.87553 19.5019 10.5731 18.1697 12.6769L15.3673 17.1021C14.0337 19.2079 11.4319 20.0235 9.18635 19.184L13.9221 12.6069Z" fill="black"/>
</svg>
