<svg width="24" height="24" viewBox="0 0 24 24" fill="none" xmlns="http://www.w3.org/2000/svg">
<path fill-rule="evenodd" clip-rule="evenodd" d="M4.56994 3.9L7.50602 16.1021L8.38875 15.8897L5.72223 4.80787H17.7825L15.2418 15.8945L16.1268 16.0973L16.9385 12.5555C18.7042 12.5753 19.9141 11.8619 20.6918 10.9122C21.5043 9.91979 21.8228 8.69933 21.8717 7.86858L21.9 7.38797H18.1227L18.922 3.9H4.56994ZM17.9146 8.29584L17.1468 11.6463C18.5211 11.6111 19.4123 11.0417 19.9893 10.337C20.5121 9.69842 20.7913 8.92892 20.9063 8.29584H17.9146Z" fill="black"/>
<path d="M2.5 16.5054H21.219V17.4133H2.5V16.5054Z" fill="black"/>
<path d="M5.29522 17.7419V20.1H18.3864V17.7419H17.4327V19.1464H6.24888V17.7419H5.29522Z" fill="black"/>
</svg>
