<svg width="32" height="33" viewBox="0 0 32 33" fill="none" xmlns="http://www.w3.org/2000/svg">
<path d="M17.352 13.1568L17.2072 21.4383H15.6152L15.4705 13.1568H17.352ZM16.4193 24.9118C15.7921 24.9118 15.2615 24.3972 15.2776 23.7701C15.2615 23.1429 15.7921 22.6283 16.4193 22.6283C17.0304 22.6283 17.561 23.1429 17.561 23.7701C17.561 24.3972 17.0304 24.9118 16.4193 24.9118Z" fill="#626262"/>
<path fill-rule="evenodd" clip-rule="evenodd" d="M29.23 27.7L16.0664 4.9L2.90284 27.7H29.23ZM17.7119 3.95C16.9806 2.68333 15.1523 2.68334 14.421 3.95L1.25739 26.75C0.526075 28.0167 1.44022 29.6 2.90284 29.6H29.23C30.6926 29.6 31.6068 28.0167 30.8755 26.75L17.7119 3.95Z" fill="#626262"/>
</svg>
