<svg width="28" height="28" viewBox="0 0 28 28" fill="none" xmlns="http://www.w3.org/2000/svg">
<mask id="path-1-outside-1_4700_25584" maskUnits="userSpaceOnUse" x="3.66602" y="3.66602" width="20" height="20" fill="black">
<rect fill="white" x="3.66602" y="3.66602" width="20" height="20"/>
<path fill-rule="evenodd" clip-rule="evenodd" d="M18.8882 23.3327V19.7771H9.65802C9.24853 19.7771 8.9069 19.6402 8.63313 19.3665C8.35935 19.0927 8.22216 18.7508 8.22157 18.3407V9.11046H4.66602V8.22157H8.22157V4.66602H9.11046V18.3416C9.11046 18.4779 9.16735 18.6032 9.28113 18.7176C9.3949 18.8319 9.52024 18.8888 9.65713 18.8882H23.3327V19.7771H19.7771V23.3327H18.8882ZM19.7771 17.0914H18.8882V9.65802C18.8882 9.52113 18.8313 9.3955 18.7176 9.28113C18.6038 9.16676 18.4782 9.10987 18.3407 9.11046H10.9075V8.22157H18.3416C18.7505 8.22157 19.0921 8.35876 19.3665 8.63313C19.6408 8.9075 19.7777 9.24913 19.7771 9.65802V17.0914Z"/>
</mask>
<path fill-rule="evenodd" clip-rule="evenodd" d="M18.8882 23.3327V19.7771H9.65802C9.24853 19.7771 8.9069 19.6402 8.63313 19.3665C8.35935 19.0927 8.22216 18.7508 8.22157 18.3407V9.11046H4.66602V8.22157H8.22157V4.66602H9.11046V18.3416C9.11046 18.4779 9.16735 18.6032 9.28113 18.7176C9.3949 18.8319 9.52024 18.8888 9.65713 18.8882H23.3327V19.7771H19.7771V23.3327H18.8882ZM19.7771 17.0914H18.8882V9.65802C18.8882 9.52113 18.8313 9.3955 18.7176 9.28113C18.6038 9.16676 18.4782 9.10987 18.3407 9.11046H10.9075V8.22157H18.3416C18.7505 8.22157 19.0921 8.35876 19.3665 8.63313C19.6408 8.9075 19.7777 9.24913 19.7771 9.65802V17.0914Z" fill="black"/>
<path d="M18.8882 19.7771H19.0482V19.6171H18.8882V19.7771ZM18.8882 23.3327H18.7282V23.4927H18.8882V23.3327ZM8.63313 19.3665L8.74626 19.2533H8.74626L8.63313 19.3665ZM8.22157 18.3407H8.06157L8.06157 18.3409L8.22157 18.3407ZM8.22157 9.11046H8.38157V8.95046H8.22157V9.11046ZM4.66602 9.11046H4.50602V9.27046H4.66602V9.11046ZM4.66602 8.22157V8.06157H4.50602V8.22157H4.66602ZM8.22157 8.22157V8.38157H8.38157V8.22157H8.22157ZM8.22157 4.66602V4.50602H8.06157V4.66602H8.22157ZM9.11046 4.66602H9.27046V4.50602H9.11046V4.66602ZM9.28113 18.7176L9.39456 18.6047L9.28113 18.7176ZM9.65713 18.8882V18.7282L9.65643 18.7282L9.65713 18.8882ZM23.3327 18.8882H23.4927V18.7282H23.3327V18.8882ZM23.3327 19.7771V19.9371H23.4927V19.7771H23.3327ZM19.7771 19.7771V19.6171H19.6171V19.7771H19.7771ZM19.7771 23.3327V23.4927H19.9371V23.3327H19.7771ZM18.8882 17.0914H18.7282V17.2514H18.8882V17.0914ZM19.7771 17.0914V17.2514H19.9371V17.0914H19.7771ZM18.7176 9.28113L18.831 9.16828L18.831 9.16828L18.7176 9.28113ZM18.3407 9.11046V9.27046L18.3414 9.27046L18.3407 9.11046ZM10.9075 9.11046H10.7475V9.27046H10.9075V9.11046ZM10.9075 8.22157V8.06157H10.7475V8.22157H10.9075ZM19.3665 8.63313L19.2533 8.74626L19.3665 8.63313ZM19.7771 9.65802L19.6171 9.65778V9.65802H19.7771ZM18.7282 19.7771V23.3327H19.0482V19.7771H18.7282ZM9.65802 19.9371H18.8882V19.6171H9.65802V19.9371ZM8.51999 19.4796C8.82564 19.7852 9.20881 19.9371 9.65802 19.9371V19.6171C9.28825 19.6171 8.98817 19.4952 8.74626 19.2533L8.51999 19.4796ZM8.06157 18.3409C8.06222 18.7906 8.21435 19.174 8.51999 19.4796L8.74626 19.2533C8.50434 19.0114 8.38211 18.7109 8.38157 18.3405L8.06157 18.3409ZM8.06157 9.11046V18.3407H8.38157V9.11046H8.06157ZM4.66602 9.27046H8.22157V8.95046H4.66602V9.27046ZM4.50602 8.22157V9.11046H4.82602V8.22157H4.50602ZM8.22157 8.06157H4.66602V8.38157H8.22157V8.06157ZM8.06157 4.66602V8.22157H8.38157V4.66602H8.06157ZM9.11046 4.50602H8.22157V4.82602H9.11046V4.50602ZM9.27046 18.3416V4.66602H8.95046V18.3416H9.27046ZM9.39456 18.6047C9.30472 18.5144 9.27046 18.4279 9.27046 18.3416H8.95046C8.95046 18.5278 9.02997 18.692 9.1677 18.8304L9.39456 18.6047ZM9.65643 18.7282C9.56996 18.7286 9.48395 18.6946 9.39456 18.6047L9.1677 18.8304C9.30586 18.9693 9.47052 19.049 9.65782 19.0482L9.65643 18.7282ZM23.3327 18.7282H9.65713V19.0482H23.3327V18.7282ZM23.4927 19.7771V18.8882H23.1727V19.7771H23.4927ZM19.7771 19.9371H23.3327V19.6171H19.7771V19.9371ZM19.9371 23.3327V19.7771H19.6171V23.3327H19.9371ZM18.8882 23.4927H19.7771V23.1727H18.8882V23.4927ZM18.8882 17.2514H19.7771V16.9314H18.8882V17.2514ZM18.7282 9.65802V17.0914H19.0482V9.65802H18.7282ZM18.6041 9.39397C18.6938 9.48411 18.7282 9.5709 18.7282 9.65802H19.0482C19.0482 9.47136 18.9689 9.30688 18.831 9.16828L18.6041 9.39397ZM18.3414 9.27046C18.4286 9.27008 18.5149 9.30427 18.6041 9.39397L18.831 9.16828C18.6927 9.02924 18.5277 8.94965 18.34 8.95046L18.3414 9.27046ZM10.9075 9.27046H18.3407V8.95046H10.9075V9.27046ZM10.7475 8.22157V9.11046H11.0675V8.22157H10.7475ZM18.3416 8.06157H10.9075V8.38157H18.3416V8.06157ZM19.4796 8.51999C19.1735 8.21387 18.7904 8.06157 18.3416 8.06157V8.38157C18.7106 8.38157 19.0107 8.50365 19.2533 8.74626L19.4796 8.51999ZM19.9371 9.65825C19.9378 9.20939 19.7858 8.82617 19.4796 8.51999L19.2533 8.74626C19.4959 8.98882 19.6177 9.28887 19.6171 9.65778L19.9371 9.65825ZM19.9371 17.0914V9.65802H19.6171V17.0914H19.9371Z" fill="black" mask="url(#path-1-outside-1_4700_25584)"/>
</svg>
