<svg width="14" height="14" viewBox="0 0 14 14" fill="none" xmlns="http://www.w3.org/2000/svg">
<path d="M0 1.55556C0 0.696446 0.696446 0 1.55556 0H10.8889C11.748 0 12.4444 0.696446 12.4444 1.55556V10.8889C12.4444 11.748 11.748 12.4444 10.8889 12.4444H1.55556C0.696446 12.4444 0 11.748 0 10.8889V1.55556Z" fill="white"/>
<path d="M2.75 13.1667C2.51988 13.1667 2.33333 13.3532 2.33333 13.5833C2.33333 13.8135 2.51988 14 2.75 14H10.8889C12.6071 14 14 12.6071 14 10.8889V2.75C14 2.51988 13.8135 2.33333 13.5833 2.33333C13.3532 2.33333 13.1667 2.51988 13.1667 2.75V10.8333C13.1667 12.122 12.122 13.1667 10.8333 13.1667H2.75Z" fill="white"/>
</svg>
