<svg width="25" height="24" viewBox="0 0 25 24" fill="none" xmlns="http://www.w3.org/2000/svg">
<path fill-rule="evenodd" clip-rule="evenodd" d="M9.82956 7.86735L13.117 3.29207C13.3777 2.92918 13.9506 3.11364 13.9506 3.56049V9.21408L17.87 10.6681C18.1599 10.7756 18.2633 11.1327 18.0757 11.3784L16.1074 13.9576L10.9482 20.6783C10.6586 21.0507 10.063 20.7978 10.1297 20.3309L10.9216 14.7879L6.53511 13.472C6.23177 13.381 6.10896 13.0178 6.29487 12.7614L9.82956 7.86735Z" fill="white"/>
<path d="M17.4495 7.85742H16.5571L18.1942 3.20932H19.2214L20.865 7.85742H19.9726L19.5874 6.70824H17.8347L17.4495 7.85742ZM18.0594 6.03413H19.3627L18.7271 4.15949H18.6886L18.0594 6.03413Z" fill="white"/>
</svg>
