<svg width="24" height="24" viewBox="0 0 24 24" fill="none" xmlns="http://www.w3.org/2000/svg">
<path d="M12.9069 4.9273L10.4168 8.3929L9.6859 7.86773L12.9733 3.29246C13.2341 2.92957 13.8069 3.11403 13.8069 3.56088V9.21447L17.7264 10.6685C18.0162 10.776 18.1196 11.1331 17.932 11.3788L15.9637 13.958L15.2483 13.412L16.8559 11.3055L13.2069 9.95183C13.0266 9.88493 12.9069 9.7129 12.9069 9.52055L12.9069 4.9273Z" fill="black"/>
<path d="M17.8872 18.2538L5.5 5.86669L6.13639 5.23029L18.5236 17.6174L17.8872 18.2538Z" fill="black"/>
<path d="M8.11944 10.047L6.1512 12.7618C5.96529 13.0182 6.08811 13.3814 6.39144 13.4724L10.7779 14.7883L9.98605 20.3313C9.91934 20.7982 10.5149 21.0511 10.8045 20.6787L14.3596 16.108L13.6492 15.5554L11.1113 18.8183L11.7224 14.5407C11.7546 14.3154 11.6172 14.1005 11.3992 14.0351L7.24355 12.7884L8.84809 10.5752L8.11944 10.047Z" fill="black"/>
</svg>
