<svg width="25" height="24" viewBox="0 0 25 24" fill="none" xmlns="http://www.w3.org/2000/svg">
<path d="M13.4782 4.92691L10.9881 8.39251L10.2572 7.86735L13.5446 3.29207C13.8053 2.92918 14.3782 3.11364 14.3782 3.56049V9.21408L18.2977 10.6681C18.5875 10.7756 18.6909 11.1327 18.5033 11.3784L16.535 13.9576L15.8196 13.4116L17.4272 11.3051L13.7782 9.95144C13.5979 9.88454 13.4782 9.71251 13.4782 9.52016L13.4782 4.92691Z" fill="white"/>
<path d="M18.4585 18.2534L6.07129 5.8663L6.70768 5.2299L19.0949 17.617L18.4585 18.2534Z" fill="white"/>
<path d="M8.69073 10.0466L6.72249 12.7614C6.53658 13.0178 6.6594 13.381 6.96273 13.472L11.3492 14.7879L10.5573 20.3309C10.4906 20.7978 11.0862 21.0507 11.3758 20.6783L14.9309 16.1076L14.2204 15.555L11.6826 18.818L12.2937 14.5403C12.3259 14.3151 12.1885 14.1001 11.9705 14.0347L7.81484 12.788L9.41938 10.5748L8.69073 10.0466Z" fill="white"/>
</svg>
