<svg width="24" height="24" viewBox="0 0 24 24" fill="none" xmlns="http://www.w3.org/2000/svg">
<path d="M12.9069 4.92691L10.4168 8.39251L9.6859 7.86735L12.9733 3.29207C13.2341 2.92918 13.8069 3.11364 13.8069 3.56049V9.21408L17.7264 10.6681C18.0162 10.7756 18.1196 11.1327 17.932 11.3784L15.9637 13.9576L15.2483 13.4116L16.8559 11.3051L13.2069 9.95144C13.0266 9.88454 12.9069 9.71251 12.9069 9.52016L12.9069 4.92691Z" fill="#111111"/>
<path d="M17.8872 18.2534L5.5 5.8663L6.13639 5.2299L18.5236 17.617L17.8872 18.2534Z" fill="#111111"/>
<path d="M8.11944 10.0466L6.1512 12.7614C5.96529 13.0178 6.08811 13.381 6.39144 13.472L10.7779 14.7879L9.98605 20.3309C9.91934 20.7978 10.5149 21.0507 10.8045 20.6783L14.3596 16.1076L13.6492 15.555L11.1113 18.818L11.7224 14.5403C11.7546 14.3151 11.6172 14.1001 11.3992 14.0347L7.24355 12.788L8.84809 10.5748L8.11944 10.0466Z" fill="#111111"/>
</svg>
