<svg width="24" height="24" viewBox="0 0 24 24" fill="none" xmlns="http://www.w3.org/2000/svg">
<path d="M16.4 2.7998V11.5498H14.9496L11.6348 9.06377L8.53961 12.3411L5.865 10.8127L2.8 12.1032V14.1944H10.4323V14.9944H2V11.5721L5.91878 9.92204L8.39011 11.3342L11.5435 7.9953L15.6 11.0376V3.5998H2.8V9.26467H2V2.7998H16.4Z" fill="black"/>
<path fill-rule="evenodd" clip-rule="evenodd" d="M5.34053 7.05914C5.34053 7.87114 5.99879 8.52941 6.8108 8.52941C7.62281 8.52941 8.28107 7.87114 8.28107 7.05914C8.28107 6.24713 7.62281 5.58887 6.8108 5.58887C5.99879 5.58887 5.34053 6.24713 5.34053 7.05914ZM6.14053 7.05914C6.14053 7.42932 6.44062 7.72941 6.8108 7.72941C7.18098 7.72941 7.48107 7.42932 7.48107 7.05914C7.48107 6.68896 7.18098 6.38887 6.8108 6.38887C6.44062 6.38887 6.14053 6.68896 6.14053 7.05914Z" fill="black"/>
<path d="M10.4004 12.3498H20.2824V11.5498H10.4004V12.3498Z" fill="black"/>
<path fill-rule="evenodd" clip-rule="evenodd" d="M11.2327 18.9767V13.0482H10.4327V19.0285L10.4358 19.0532C10.5154 19.6896 10.9062 20.2056 11.3327 20.5521C11.7512 20.8922 12.2766 21.1275 12.7134 21.1275H18.0779L18.1134 21.1211C18.8785 20.982 19.4074 20.6692 19.7595 20.2719C20.1078 19.8788 20.2564 19.4334 20.317 19.0694L20.3225 19.0367V17.9124H21.6929C21.9386 17.9124 22.3287 17.85 22.6571 17.5343C22.989 17.215 23.1899 16.7024 23.1899 15.9452C23.1899 14.4073 22.3369 13.7834 21.6929 13.7834H20.3225L20.3225 13.0483L19.5225 13.0483L19.5225 18.969C19.4759 19.2235 19.3732 19.5016 19.1608 19.7413C18.9476 19.9819 18.5978 20.2134 18.0048 20.3275H12.7134C12.5232 20.3275 12.171 20.2024 11.8372 19.9312C11.5182 19.672 11.2853 19.3349 11.2327 18.9767ZM21.6929 17.1124H20.3225V14.5834H21.6929C21.7802 14.5834 22.3899 14.7248 22.3899 15.9452C22.3899 16.5671 22.2268 16.8381 22.1025 16.9577C21.9746 17.0807 21.8162 17.1124 21.6929 17.1124Z" fill="black"/>
</svg>
