<svg width="24" height="24" viewBox="0 0 24 24" fill="none" xmlns="http://www.w3.org/2000/svg">
<path d="M3.90039 4.59961C3.90039 4.32347 4.12425 4.09961 4.40039 4.09961H7.60039C7.87653 4.09961 8.10039 4.32347 8.10039 4.59961V7.79961C8.10039 8.07575 7.87653 8.29961 7.60039 8.29961H4.40039C4.12425 8.29961 3.90039 8.07575 3.90039 7.79961V4.59961Z" fill="black"/>
<path d="M3.90039 10.3996C3.90039 10.1235 4.12425 9.89961 4.40039 9.89961H7.60039C7.87653 9.89961 8.10039 10.1235 8.10039 10.3996V13.5996C8.10039 13.8758 7.87653 14.0996 7.60039 14.0996H4.40039C4.12425 14.0996 3.90039 13.8758 3.90039 13.5996V10.3996Z" fill="black"/>
<path d="M3.90039 16.1996C3.90039 15.9235 4.12425 15.6996 4.40039 15.6996H7.60039C7.87653 15.6996 8.10039 15.9235 8.10039 16.1996V19.3996C8.10039 19.6758 7.87653 19.8996 7.60039 19.8996H4.40039C4.12425 19.8996 3.90039 19.6758 3.90039 19.3996V16.1996Z" fill="black"/>
<path d="M9.90039 4.59961C9.90039 4.32347 10.1242 4.09961 10.4004 4.09961H13.6004C13.8765 4.09961 14.1004 4.32347 14.1004 4.59961V7.79961C14.1004 8.07575 13.8765 8.29961 13.6004 8.29961H10.4004C10.1242 8.29961 9.90039 8.07575 9.90039 7.79961V4.59961Z" fill="black"/>
<path d="M9.90039 10.3996C9.90039 10.1235 10.1242 9.89961 10.4004 9.89961H13.6004C13.8765 9.89961 14.1004 10.1235 14.1004 10.3996V13.5996C14.1004 13.8758 13.8765 14.0996 13.6004 14.0996H10.4004C10.1242 14.0996 9.90039 13.8758 9.90039 13.5996V10.3996Z" fill="black"/>
<path d="M9.90039 16.1996C9.90039 15.9235 10.1242 15.6996 10.4004 15.6996H13.6004C13.8765 15.6996 14.1004 15.9235 14.1004 16.1996V19.3996C14.1004 19.6758 13.8765 19.8996 13.6004 19.8996H10.4004C10.1242 19.8996 9.90039 19.6758 9.90039 19.3996V16.1996Z" fill="black"/>
<path d="M15.9004 4.59961C15.9004 4.32347 16.1242 4.09961 16.4004 4.09961H19.6004C19.8765 4.09961 20.1004 4.32347 20.1004 4.59961V7.79961C20.1004 8.07575 19.8765 8.29961 19.6004 8.29961H16.4004C16.1242 8.29961 15.9004 8.07575 15.9004 7.79961V4.59961Z" fill="black"/>
<path d="M15.9004 10.3996C15.9004 10.1235 16.1242 9.89961 16.4004 9.89961H19.6004C19.8765 9.89961 20.1004 10.1235 20.1004 10.3996V13.5996C20.1004 13.8758 19.8765 14.0996 19.6004 14.0996H16.4004C16.1242 14.0996 15.9004 13.8758 15.9004 13.5996V10.3996Z" fill="black"/>
<path d="M15.9004 16.1996C15.9004 15.9235 16.1242 15.6996 16.4004 15.6996H19.6004C19.8765 15.6996 20.1004 15.9235 20.1004 16.1996V19.3996C20.1004 19.6758 19.8765 19.8996 19.6004 19.8996H16.4004C16.1242 19.8996 15.9004 19.6758 15.9004 19.3996V16.1996Z" fill="black"/>
</svg>
