<svg width="24" height="24" viewBox="0 0 24 24" fill="none" xmlns="http://www.w3.org/2000/svg">
<path d="M3.90002 4.6C3.90002 4.32386 4.12388 4.1 4.40002 4.1H7.60002C7.87617 4.1 8.10002 4.32386 8.10002 4.6V7.8C8.10002 8.07614 7.87617 8.3 7.60002 8.3H4.40002C4.12388 8.3 3.90002 8.07614 3.90002 7.8V4.6Z" fill="black"/>
<path d="M3.90002 10.4C3.90002 10.1239 4.12388 9.9 4.40002 9.9H7.60002C7.87617 9.9 8.10002 10.1239 8.10002 10.4V13.6C8.10002 13.8761 7.87617 14.1 7.60002 14.1H4.40002C4.12388 14.1 3.90002 13.8761 3.90002 13.6V10.4Z" fill="black"/>
<path d="M3.90002 16.2C3.90002 15.9239 4.12388 15.7 4.40002 15.7H7.60002C7.87617 15.7 8.10002 15.9239 8.10002 16.2V19.4C8.10002 19.6761 7.87617 19.9 7.60002 19.9H4.40002C4.12388 19.9 3.90002 19.6761 3.90002 19.4V16.2Z" fill="black"/>
<path d="M9.90002 4.6C9.90002 4.32386 10.1239 4.1 10.4 4.1H13.6C13.8762 4.1 14.1 4.32386 14.1 4.6V7.8C14.1 8.07614 13.8762 8.3 13.6 8.3H10.4C10.1239 8.3 9.90002 8.07614 9.90002 7.8V4.6Z" fill="black"/>
<path d="M9.90002 10.4C9.90002 10.1239 10.1239 9.9 10.4 9.9H13.6C13.8762 9.9 14.1 10.1239 14.1 10.4V13.6C14.1 13.8761 13.8762 14.1 13.6 14.1H10.4C10.1239 14.1 9.90002 13.8761 9.90002 13.6V10.4Z" fill="black"/>
<path d="M9.90002 16.2C9.90002 15.9239 10.1239 15.7 10.4 15.7H13.6C13.8762 15.7 14.1 15.9239 14.1 16.2V19.4C14.1 19.6761 13.8762 19.9 13.6 19.9H10.4C10.1239 19.9 9.90002 19.6761 9.90002 19.4V16.2Z" fill="black"/>
<path d="M15.9 4.6C15.9 4.32386 16.1239 4.1 16.4 4.1H19.6C19.8762 4.1 20.1 4.32386 20.1 4.6V7.8C20.1 8.07614 19.8762 8.3 19.6 8.3H16.4C16.1239 8.3 15.9 8.07614 15.9 7.8V4.6Z" fill="black"/>
<path d="M15.9 10.4C15.9 10.1239 16.1239 9.9 16.4 9.9H19.6C19.8762 9.9 20.1 10.1239 20.1 10.4V13.6C20.1 13.8761 19.8762 14.1 19.6 14.1H16.4C16.1239 14.1 15.9 13.8761 15.9 13.6V10.4Z" fill="black"/>
<path d="M15.9 16.2C15.9 15.9239 16.1239 15.7 16.4 15.7H19.6C19.8762 15.7 20.1 15.9239 20.1 16.2V19.4C20.1 19.6761 19.8762 19.9 19.6 19.9H16.4C16.1239 19.9 15.9 19.6761 15.9 19.4V16.2Z" fill="black"/>
</svg>
