<svg width="24" height="24" viewBox="0 0 24 24" fill="none" xmlns="http://www.w3.org/2000/svg">
<path fill-rule="evenodd" clip-rule="evenodd" d="M14.2032 15.4307H20.0429V14.3621H14.5762L16.1427 9.87407H20.1498V8.80545H10.6969L12.4258 3.85217L11.4169 3.5L9.56501 8.80545H3.90667V9.87407H9.192L7.62542 14.3621H3.7998V15.4307H13.0713L11.4169 20.1703L12.4258 20.5225L14.2032 15.4307ZM13.4443 14.3621H8.75728L10.3239 9.87407H15.0109L13.4443 14.3621Z" fill="black"/>
<path d="M5.75235 19.8521L6.92784 16.4325L7.93843 16.7799L6.76294 20.1995L5.75235 19.8521Z" fill="black"/>
<path d="M16.9149 7.59002L18.0904 4.17041L17.0798 3.82302L15.9043 7.24263L16.9149 7.59002Z" fill="black"/>
</svg>
