<svg width="24" height="24" viewBox="0 0 24 24" fill="none" xmlns="http://www.w3.org/2000/svg">
<path fill-rule="evenodd" clip-rule="evenodd" d="M14.2034 15.4309H20.0432V14.3623H14.5764L16.143 9.87424H20.15V8.80561H10.6971L12.4261 3.85234L11.4172 3.50017L9.56525 8.80561H3.90691V9.87424H9.19224L7.62567 14.3623H3.80005V15.4309H13.0715L11.4172 20.1705L12.4261 20.5227L14.2034 15.4309ZM13.4446 14.3623H8.75753L10.3241 9.87424H15.0111L13.4446 14.3623Z" fill="black"/>
<path d="M5.7526 19.8522L6.92809 16.4326L7.93868 16.78L6.76319 20.1996L5.7526 19.8522Z" fill="black"/>
<path d="M16.9151 7.59019L18.0906 4.17058L17.08 3.82319L15.9046 7.2428L16.9151 7.59019Z" fill="black"/>
</svg>
