<svg width="24" height="24" viewBox="0 0 24 24" fill="none" xmlns="http://www.w3.org/2000/svg">
<path fill-rule="evenodd" clip-rule="evenodd" d="M14.1806 15.2141H19.8954V14.2096H14.5457L16.0787 9.9912H20V8.98676H10.7494L12.4414 4.33102L11.454 4L9.64179 8.98676H4.10458V9.9912H9.27676L7.74373 14.2096H4V15.2141H13.073L11.454 19.669L12.4414 20L14.1806 15.2141ZM13.438 14.2096H8.85135L10.3844 9.9912H14.9711L13.438 14.2096Z" fill="#111111"/>
<path d="M5.91075 19.3699L7.06108 16.1557L8.05003 16.4822L6.89971 19.6964L5.91075 19.3699Z" fill="#111111"/>
<path d="M16.8343 7.84434L17.9847 4.63014L16.9957 4.30362L15.8454 7.51782L16.8343 7.84434Z" fill="#111111"/>
</svg>
