<svg width="24" height="24" viewBox="0 0 24 24" fill="none" xmlns="http://www.w3.org/2000/svg">
<path d="M20.0293 11.9486C19.6978 12.2636 19.2323 12.4841 18.5901 12.4841C18.5537 12.4841 18.5178 12.4834 18.4824 12.482V16.8426H5.26314V12.3298C4.62677 12.3242 4.17375 12.1509 3.85684 11.9034V19.8468C3.85684 20.6115 4.88813 20.7571 5.26314 20.8027H19.0449C19.945 20.8027 20.0762 19.9833 20.0293 19.5737V11.9486Z" fill="white"/>
<path d="M18.6029 11.5037C20.2882 11.5037 20.7568 10.1458 20.7804 9.36091V7.43126L18.8507 3.2002H5.14845L3.2011 7.76762V9.62646C3.1775 10.2697 3.60805 11.5037 5.35005 11.5037C7.09204 11.5037 7.49708 9.88095 7.50298 9.14922C7.6151 9.93406 8.08552 11.5037 9.70005 11.5037C11.3146 11.5037 11.9111 9.93406 11.9288 9.14922C12.0114 9.93406 12.628 11.5037 14.2 11.5037C15.7721 11.5037 16.2366 9.93406 16.3015 9.14922C16.3664 9.93406 16.9175 11.5037 18.6029 11.5037Z" fill="white"/>
</svg>
