<svg width="24" height="24" viewBox="0 0 24 24" fill="none" xmlns="http://www.w3.org/2000/svg">
<path d="M16.5033 15.397C16.2383 15.3763 15.979 15.3411 15.7267 15.2924C14.7897 16.4444 13.1236 17.2129 11.2227 17.2173C9.52126 17.2212 8.00516 16.6121 7.03004 15.6614C4.51253 15.8047 2.33278 14.5214 1.95646 12.5466C1.59048 10.626 3.0506 8.68367 5.33227 7.84594C5.28476 7.62699 5.26004 7.40214 5.26004 7.17286C5.26004 4.92327 7.6399 3.09961 10.5756 3.09961C12.2759 3.09961 13.7897 3.71132 14.7627 4.66321C17.151 3.95001 19.5394 4.67424 20.3709 6.4845C20.6735 7.14334 20.7329 7.8656 20.5851 8.58312C21.6129 9.41153 22.2122 10.5462 22.1186 11.7499C21.9442 13.9927 19.4302 15.6256 16.5033 15.397Z" fill="white"/>
<path d="M15.2128 18.7084C15.3981 19.321 16.5745 19.506 17.8405 19.1216C19.1065 18.7372 19.9827 17.9289 19.7974 17.3163C19.6122 16.7037 18.4357 16.5187 17.1697 16.9031C15.9037 17.2875 15.0276 18.0958 15.2128 18.7084Z" fill="white"/>
<path d="M19.2114 20.5512C19.3128 20.8868 19.9104 21.0025 20.546 20.8095C21.1815 20.6165 21.6145 20.188 21.513 19.8523C21.4116 19.5167 20.814 19.4011 20.1784 19.5941C19.5429 19.7871 19.1099 20.2156 19.2114 20.5512Z" fill="white"/>
</svg>
