<svg width="24" height="24" viewBox="0 0 24 24" fill="none" xmlns="http://www.w3.org/2000/svg">
<path fill-rule="evenodd" clip-rule="evenodd" d="M18.5179 4.7002H3.38606C3.34227 6.91913 3.27936 11.8353 3.38479 13.4379C3.43911 14.2637 3.8596 14.7952 4.36124 15.1209C4.86 15.4448 5.43897 15.566 5.8218 15.5787L5.82301 15.5787H16.3412C16.9886 15.5787 17.5177 15.3695 17.8934 14.9928C18.2686 14.6166 18.5179 14.1002 18.5178 13.4369C18.5177 12.7735 18.5179 12.908 18.5179 12.908C19.1938 12.4081 20.1388 11.5423 20.813 10.6082C21.1656 10.1196 21.4762 9.56871 21.611 9.00929C21.7496 8.4339 21.711 7.79133 21.2724 7.24745C20.934 6.82783 20.4987 6.60468 20.0323 6.55482C19.5873 6.50724 19.1604 6.62123 18.8035 6.78389C18.7067 6.82803 18.6112 6.87751 18.5179 6.93133V4.7002ZM19.3619 8.0092C19.5791 7.91024 19.7582 7.87974 19.8891 7.89374C19.9986 7.90544 20.109 7.94989 20.2243 8.09275C20.3255 8.21831 20.3744 8.39283 20.3018 8.69396C20.2253 9.01169 20.0255 9.3983 19.7211 9.82014C19.3769 10.297 18.9396 10.7637 18.5179 11.155V8.66478C18.7001 8.44053 19.0135 8.16799 19.3619 8.0092Z" fill="white"/>
<path d="M20.582 17.2422H2.2998C2.58565 18.7014 4.33076 19.2371 6.17064 19.2371C9.0291 19.2561 15.2463 19.2827 17.2472 19.2371C19.2481 19.1915 20.3041 17.8882 20.582 17.2422Z" fill="white"/>
</svg>
