<svg width="24" height="24" viewBox="0 0 24 24" fill="none" xmlns="http://www.w3.org/2000/svg">
<path d="M2.60889 12.4173C2.71126 14.72 3.65611 16.9047 5.26385 18.5563L6.07215 17.7696C4.65733 16.3161 3.82586 14.3934 3.7358 12.3673C3.64571 10.3407 4.30328 8.35202 5.58352 6.77858C6.86377 5.20514 8.67745 4.15709 10.6798 3.83366C12.6822 3.51022 14.7337 3.93327 16.4444 5.02311C18.155 6.11334 19.4056 7.79342 19.9585 9.74498C20.5113 11.6965 20.3278 13.7833 19.4429 15.6087C18.558 17.4337 17.0333 18.87 15.1587 19.6446C13.2841 20.4192 11.1902 20.4782 9.275 19.8102L8.90347 20.8751C11.0798 21.6344 13.4592 21.5676 15.5895 20.6872C17.7197 19.8071 19.4523 18.1747 20.4579 16.1005C21.4635 14.0266 21.672 11.6555 21.0438 9.43756C20.4155 7.21998 18.9944 5.31061 17.0505 4.07194C15.1065 2.83327 12.7753 2.35241 10.4999 2.71998C8.22444 3.08795 6.16343 4.27897 4.7086 6.06647C3.25379 7.85436 2.50652 10.1145 2.60889 12.4173Z" fill="#111111"/>
<path d="M13.0996 8.29967C13.0996 8.79655 12.6967 9.19967 12.1996 9.19967C11.7026 9.19967 11.2996 8.79655 11.2996 8.29967C11.2996 7.8028 11.7026 7.39967 12.1996 7.39967C12.6967 7.39967 13.0996 7.8028 13.0996 8.29967Z" fill="#111111"/>
<path d="M11.459 16.3997V10.2997H12.859V16.3997H11.459Z" fill="#111111"/>
</svg>
