<svg width="24" height="24" viewBox="0 0 24 24" fill="none" xmlns="http://www.w3.org/2000/svg">
<path fill-rule="evenodd" clip-rule="evenodd" d="M21.2 4.2V19.8622H2.69995V15.4829L7.72681 13.3663L10.9106 15.1856L14.9672 10.8903L20.2 14.8149V5.2H3.69995V12.5041H2.69995V4.2H21.2ZM20.2 18.8622V16.0649L15.0813 12.2259L11.0974 16.4441L7.65958 14.4796L3.69995 16.1468V18.8622H20.2Z" fill="black"/>
<path fill-rule="evenodd" clip-rule="evenodd" d="M6.98373 9.63056C6.98373 10.6754 7.83076 11.5225 8.87563 11.5225C9.92049 11.5225 10.7675 10.6754 10.7675 9.63056C10.7675 8.5857 9.92049 7.73867 8.87563 7.73867C7.83076 7.73867 6.98373 8.5857 6.98373 9.63056ZM7.98373 9.63056C7.98373 10.1231 8.38305 10.5225 8.87563 10.5225C9.3682 10.5225 9.76752 10.1231 9.76752 9.63056C9.76752 9.13798 9.3682 8.73867 8.87563 8.73867C8.38305 8.73867 7.98373 9.13798 7.98373 9.63056Z" fill="black"/>
</svg>
