<svg width="24" height="24" viewBox="0 0 24 24" fill="none" xmlns="http://www.w3.org/2000/svg">
<path fill-rule="evenodd" clip-rule="evenodd" d="M21.2002 4.2002V19.8624H2.7002V15.4831L7.72705 13.3665L10.9108 15.1858L14.9675 10.8905L20.2002 14.8151V5.2002H3.7002V12.5042H2.7002V4.2002H21.2002ZM20.2002 18.8624V16.0651L15.0816 12.2261L11.0977 16.4443L7.65982 14.4798L3.7002 16.147V18.8624H20.2002Z" fill="black"/>
<path fill-rule="evenodd" clip-rule="evenodd" d="M6.98398 9.63076C6.98398 10.6756 7.83101 11.5227 8.87587 11.5227C9.92073 11.5227 10.7678 10.6756 10.7678 9.63076C10.7678 8.5859 9.92073 7.73887 8.87587 7.73887C7.83101 7.73887 6.98398 8.5859 6.98398 9.63076ZM7.98398 9.63076C7.98398 10.1233 8.38329 10.5227 8.87587 10.5227C9.36845 10.5227 9.76776 10.1233 9.76776 9.63076C9.76776 9.13818 9.36845 8.73887 8.87587 8.73887C8.38329 8.73887 7.98398 9.13818 7.98398 9.63076Z" fill="black"/>
</svg>
