<svg width="24" height="24" viewBox="0 0 24 24" fill="none" xmlns="http://www.w3.org/2000/svg">
<path fill-rule="evenodd" clip-rule="evenodd" d="M21 5V20H3V15.8059L7.891 13.7788L10.9887 15.5212L14.9357 11.4075L20.027 15.1661V5.95772H3.97297V12.953H3V5H21ZM20.027 19.0423V16.3632L15.0467 12.6866L11.1705 16.7265L7.82558 14.845L3.97297 16.4418V19.0423H20.027Z" fill="#111111"/>
<path fill-rule="evenodd" clip-rule="evenodd" d="M7.168 10.201C7.168 11.2017 7.99214 12.0129 9.00876 12.0129C10.0254 12.0129 10.8495 11.2017 10.8495 10.201C10.8495 9.20028 10.0254 8.38906 9.00876 8.38906C7.99214 8.38906 7.168 9.20028 7.168 10.201ZM8.14098 10.201C8.14098 10.6727 8.5295 11.0552 9.00876 11.0552C9.48803 11.0552 9.87655 10.6727 9.87655 10.201C9.87655 9.72922 9.48803 9.34679 9.00876 9.34679C8.5295 9.34679 8.14098 9.72922 8.14098 10.201Z" fill="#111111"/>
</svg>
