<svg width="24" height="24" viewBox="0 0 24 24" fill="none" xmlns="http://www.w3.org/2000/svg">
<path d="M2.60926 12.4176C2.71163 14.7204 3.65647 16.9051 5.26421 18.5567L6.07251 17.77C4.65769 16.3165 3.82623 14.3938 3.73616 12.3676C3.64607 10.3411 4.30364 8.35241 5.58389 6.77897C6.86414 5.20553 8.67781 4.15748 10.6802 3.83405C12.6826 3.51061 14.7341 3.93365 16.4447 5.0235C18.1554 6.11373 19.406 7.79381 19.9588 9.74537C20.5117 11.6969 20.3282 13.7837 19.4433 15.609C18.5583 17.434 17.0337 18.8704 15.1591 19.645C13.2845 20.4196 11.1906 20.4786 9.27537 19.8106L8.90384 20.8755C11.0802 21.6348 13.4596 21.568 15.5898 20.6876C17.7201 19.8075 19.4527 18.1751 20.4583 16.1008C21.4638 14.027 21.6723 11.6559 21.0441 9.43795C20.4159 7.22037 18.9948 5.311 17.0508 4.07233C15.1069 2.83365 12.7756 2.3528 10.5002 2.72037C8.22481 3.08834 6.1638 4.27936 4.70896 6.06686C3.25415 7.85475 2.50689 10.1149 2.60926 12.4176Z" fill="black"/>
<path d="M13.1 8.30006C13.1 8.79694 12.6971 9.20006 12.2 9.20006C11.703 9.20006 11.3 8.79694 11.3 8.30006C11.3 7.80319 11.703 7.40006 12.2 7.40006C12.6971 7.40006 13.1 7.80319 13.1 8.30006Z" fill="black"/>
<path d="M11.4594 16.4001V10.3001H12.8594V16.4001H11.4594Z" fill="black"/>
</svg>
