<svg width="24" height="24" viewBox="0 0 24 24" fill="none" xmlns="http://www.w3.org/2000/svg">
<path fill-rule="evenodd" clip-rule="evenodd" d="M8.81802 8.81802C9.66193 7.97411 10.8065 7.5 12 7.5C13.1935 7.5 14.3381 7.97411 15.182 8.81802C16.0259 9.66193 16.5 10.8065 16.5 12C16.5 13.1935 16.0259 14.3381 15.182 15.182C14.3381 16.0259 13.1935 16.5 12 16.5C10.8065 16.5 9.66193 16.0259 8.81802 15.182C7.97411 14.3381 7.5 13.1935 7.5 12C7.5 10.8065 7.97411 9.66193 8.81802 8.81802ZM12 8.5C11.0717 8.5 10.1815 8.86875 9.52513 9.52513C8.86875 10.1815 8.5 11.0717 8.5 12C8.5 12.9283 8.86875 13.8185 9.52513 14.4749C10.1815 15.1313 11.0717 15.5 12 15.5C12.9283 15.5 13.8185 15.1313 14.4749 14.4749C15.1313 13.8185 15.5 12.9283 15.5 12C15.5 11.0717 15.1313 10.1815 14.4749 9.52513C13.8185 8.86875 12.9283 8.5 12 8.5Z" fill="black"/>
<path fill-rule="evenodd" clip-rule="evenodd" d="M8 3.5C6.80653 3.5 5.66193 3.97411 4.81802 4.81802C3.97411 5.66193 3.5 6.80653 3.5 8V16C3.5 17.1935 3.97411 18.3381 4.81802 19.182C5.66193 20.0259 6.80653 20.5 8 20.5H16C17.1935 20.5 18.3381 20.0259 19.182 19.182C20.0259 18.3381 20.5 17.1935 20.5 16V8C20.5 6.80653 20.0259 5.66193 19.182 4.81802C18.3381 3.97411 17.1935 3.5 16 3.5H8ZM4.11091 4.11091C5.14236 3.07946 6.54131 2.5 8 2.5H16C17.4587 2.5 18.8576 3.07946 19.8891 4.11091C20.9205 5.14236 21.5 6.54131 21.5 8V16C21.5 17.4587 20.9205 18.8576 19.8891 19.8891C18.8576 20.9205 17.4587 21.5 16 21.5H8C6.54131 21.5 5.14236 20.9205 4.11091 19.8891C3.07946 18.8576 2.5 17.4587 2.5 16V8C2.5 6.54131 3.07946 5.14236 4.11091 4.11091Z" fill="black"/>
<path fill-rule="evenodd" clip-rule="evenodd" d="M17.8463 6.12906C18.0507 6.31481 18.0657 6.63104 17.88 6.83536L17.87 6.84637C17.6842 7.05069 17.368 7.06575 17.1637 6.88C16.9593 6.69424 16.9443 6.37802 17.13 6.17369L17.14 6.16269C17.3258 5.95836 17.642 5.9433 17.8463 6.12906Z" fill="black"/>
</svg>
