<svg width="24" height="24" viewBox="0 0 24 24" fill="none" xmlns="http://www.w3.org/2000/svg">
<path fill-rule="evenodd" clip-rule="evenodd" d="M5.07342 11.662L11.9519 18.8493L18.8831 11.7819C20.4465 10.1878 20.4632 7.57381 18.9203 5.95986C17.3955 4.36477 14.9211 4.34895 13.3759 5.92441L11.9663 7.36171L10.5944 5.92875C9.08378 4.35085 6.6344 4.337 5.10601 5.89773C3.55936 7.47708 3.54473 10.0652 5.07342 11.662ZM11.9428 20.3381L4.32508 12.3784C2.4097 10.3778 2.42794 7.15173 4.36582 5.17287C6.2752 3.22311 9.33575 3.21157 11.2575 5.12532C11.2862 5.15389 11.3146 5.18289 11.3428 5.21231L11.9753 5.87299L12.6363 5.19901C12.6579 5.17695 12.6797 5.15514 12.7016 5.13357C14.6607 3.2064 17.7613 3.24817 19.6692 5.24397C21.5985 7.26211 21.5777 10.514 19.6228 12.5073L11.9428 20.3381Z" fill="#111111"/>
</svg>
