<svg width="24" height="24" viewBox="0 0 24 24" fill="none" xmlns="http://www.w3.org/2000/svg">
<path fill-rule="evenodd" clip-rule="evenodd" d="M5.07305 11.6618L11.9515 18.8491L18.8828 11.7817C20.4461 10.1876 20.4629 7.57361 18.92 5.95967C17.3951 4.36458 14.9207 4.34876 13.3756 5.92422L11.966 7.36152L10.5941 5.92856C9.08341 4.35066 6.63404 4.33681 5.10564 5.89753C3.55899 7.47689 3.54436 10.065 5.07305 11.6618ZM11.9424 20.338L4.32471 12.3782C2.40933 10.3776 2.42757 7.15154 4.36545 5.17267C6.27483 3.22291 9.33539 3.21138 11.2571 5.12512C11.2858 5.15369 11.3142 5.18269 11.3424 5.21212L11.9749 5.8728L12.6359 5.19881C12.6576 5.17675 12.6793 5.15494 12.7013 5.13338C14.6604 3.2062 17.7609 3.24798 19.6688 5.24378C21.5981 7.26191 21.5773 10.5138 19.6224 12.5071L11.9424 20.338Z" fill="black"/>
</svg>
