<svg width="24" height="24" viewBox="0 0 24 24" fill="none" xmlns="http://www.w3.org/2000/svg">
<mask id="path-1-inside-1_502_15312" fill="white">
<path d="M4.36582 5.17287C2.42794 7.15173 2.4097 10.3778 4.32508 12.3784L11.9428 20.3381L19.6228 12.5073C21.5777 10.514 21.5985 7.26211 19.6692 5.24397C17.74 3.22584 14.5912 3.20571 12.6363 5.19901L11.9753 5.87299L11.3428 5.21231C9.42739 3.21166 6.3037 3.194 4.36582 5.17287Z"/>
</mask>
<path d="M4.36582 5.17287C2.42794 7.15173 2.4097 10.3778 4.32508 12.3784L11.9428 20.3381L19.6228 12.5073C21.5777 10.514 21.5985 7.26211 19.6692 5.24397C17.74 3.22584 14.5912 3.20571 12.6363 5.19901L11.9753 5.87299L11.3428 5.21231C9.42739 3.21166 6.3037 3.194 4.36582 5.17287Z" fill="#FE2E00"/>
<path d="M4.32508 12.3784L11.8098 5.21537L11.8084 5.21399L4.32508 12.3784ZM4.36582 5.17287L-3.03606 -2.07571L4.36582 5.17287ZM11.9428 20.3381L4.45808 27.5012L11.8517 35.2268L19.3393 27.5922L11.9428 20.3381ZM19.6228 12.5073L12.2263 5.25326L12.2263 5.25327L19.6228 12.5073ZM19.6692 5.24397L12.1806 12.4029L12.1806 12.4029L19.6692 5.24397ZM12.6363 5.19901L20.0328 12.4531L20.0328 12.4531L12.6363 5.19901ZM11.9753 5.87299L4.49193 13.0374L11.8856 20.7602L19.3718 13.127L11.9753 5.87299ZM11.3428 5.21231L18.8261 -1.95211L18.8261 -1.95211L11.3428 5.21231ZM11.8084 5.21399C13.76 7.2524 13.7421 10.4052 11.7677 12.4214L-3.03606 -2.07571C-8.88627 3.89823 -8.94058 13.5031 -3.15827 19.5428L11.8084 5.21399ZM12.2263 5.25327L4.54625 13.0841L19.3393 27.5922L27.0193 19.7614L12.2263 5.25327ZM12.1806 12.4029C10.2459 10.3791 10.2659 7.25214 12.2263 5.25326L27.0193 19.7614C32.8895 13.7759 32.9511 4.14514 27.1579 -1.91491L12.1806 12.4029ZM20.0328 12.4531C17.8898 14.6382 14.2955 14.6152 12.1806 12.4029L27.1579 -1.91491C21.1844 -8.1635 11.2926 -8.22674 5.23979 -2.05505L20.0328 12.4531ZM19.3718 13.127L20.0328 12.4531L5.23979 -2.05505L4.57879 -1.38107L19.3718 13.127ZM3.85941 12.3767L4.49193 13.0374L19.4586 -1.29143L18.8261 -1.95211L3.85941 12.3767ZM11.7677 12.4214C9.61074 14.624 5.99132 14.6035 3.85941 12.3767L18.8261 -1.95211C12.8635 -8.18022 2.99665 -8.236 -3.03606 -2.07571L11.7677 12.4214ZM19.4274 13.1751L11.8098 5.21537L-3.1596 19.5415L4.45808 27.5012L19.4274 13.1751Z" fill="#FE2E00" mask="url(#path-1-inside-1_502_15312)"/>
</svg>
