<svg width="24" height="24" viewBox="0 0 24 24" fill="none" xmlns="http://www.w3.org/2000/svg">
<path fill-rule="evenodd" clip-rule="evenodd" d="M13.2936 5.1706C14.8422 3.60924 17.2205 3.6098 18.7685 5.17229L18.7686 5.17237C19.5448 5.95607 19.9403 6.89678 19.9333 7.86458C19.9263 8.82898 19.5203 9.77324 18.7808 10.5739C18.7761 10.5791 18.7712 10.5841 18.7663 10.589L16.4133 12.9337C15.7222 13.699 14.6912 14.1523 13.6677 14.1925C12.6294 14.2333 11.557 13.8472 10.8643 12.8798C10.7019 12.653 10.7558 12.3387 10.9846 12.1777C11.2135 12.0168 11.5306 12.0702 11.693 12.297C12.1526 12.9388 12.8686 13.2161 13.6275 13.1862C14.3964 13.156 15.1665 12.8089 15.6632 12.2542C15.6696 12.247 15.6762 12.2401 15.683 12.2333L18.0381 9.88649C18.629 9.24354 18.9122 8.53433 18.9171 7.85737C18.922 7.18119 18.6499 6.49027 18.0433 5.87779C16.8931 4.71684 15.1673 4.71686 14.017 5.87786L14.0137 5.88116L14.0137 5.88114L11.6379 8.23558C11.4395 8.43223 11.1178 8.43223 10.9194 8.23558C10.7209 8.03893 10.7209 7.7201 10.9194 7.52346L13.2936 5.1706Z" fill="black"/>
<path fill-rule="evenodd" clip-rule="evenodd" d="M11.2839 9.84816C12.3196 9.83114 13.3812 10.2417 14.0691 11.2024C14.2315 11.4292 14.1776 11.7436 13.9488 11.9045C13.7199 12.0654 13.4027 12.012 13.2403 11.7852C12.776 11.1367 12.0558 10.8427 11.3007 10.8551C10.5369 10.8677 9.77573 11.1956 9.28323 11.7456C9.27582 11.7539 9.26814 11.762 9.26019 11.7697L6.8938 14.0855C6.30512 14.7268 6.02119 15.4424 6.01628 16.1277C6.01138 16.813 6.28479 17.5109 6.88996 18.122C8.04024 19.283 9.7661 19.283 10.9164 18.122L10.9196 18.1187L10.9197 18.1187L13.2954 15.7642C13.4939 15.5676 13.8156 15.5676 14.014 15.7642C14.2124 15.9609 14.2124 16.2797 14.014 16.4764L11.6399 18.8292C10.0912 20.3906 7.71288 20.39 6.16483 18.8275L6.16476 18.8275C5.38728 18.0424 4.99312 17.0939 5.00009 16.1206C5.00704 15.1504 5.41179 14.1985 6.15259 13.3965C6.15836 13.3902 6.16429 13.3841 6.17037 13.3781L8.53471 11.0643C9.23001 10.2957 10.2627 9.86495 11.2839 9.84816Z" fill="black"/>
</svg>
