<svg width="24" height="24" viewBox="0 0 24 24" fill="none" xmlns="http://www.w3.org/2000/svg">
<path d="M8.00005 5.6C8.00005 5.32386 7.77619 5.1 7.50005 5.1H4.30005C4.02391 5.1 3.80005 5.32386 3.80005 5.6V8.8C3.80005 9.07614 4.02391 9.3 4.30005 9.3H7.50005C7.77619 9.3 8.00005 9.07614 8.00005 8.8V5.6Z" fill="black"/>
<path d="M8.00005 10.4C8.00005 10.1239 7.77619 9.9 7.50005 9.9H4.30005C4.02391 9.9 3.80005 10.1239 3.80005 10.4V13.6C3.80005 13.8761 4.02391 14.1 4.30005 14.1H7.50005C7.77619 14.1 8.00005 13.8761 8.00005 13.6V10.4Z" fill="black"/>
<path d="M3.80005 15.2C3.80005 14.9239 4.02391 14.7 4.30005 14.7H7.50005C7.77619 14.7 8.00005 14.9239 8.00005 15.2V18.4C8.00005 18.6761 7.77619 18.9 7.50005 18.9H4.30005C4.02391 18.9 3.80005 18.6761 3.80005 18.4V15.2Z" fill="black"/>
<path d="M20.2 5.6C20.2 5.32386 19.9762 5.1 19.7 5.1H9.10005C8.82391 5.1 8.60005 5.32386 8.60005 5.6V8.8C8.60005 9.07614 8.82391 9.3 9.10005 9.3H19.7C19.9762 9.3 20.2 9.07614 20.2 8.8V5.6Z" fill="black"/>
<path d="M8.60005 10.4C8.60005 10.1239 8.82391 9.9 9.10005 9.9H19.7C19.9762 9.9 20.2 10.1239 20.2 10.4V13.6C20.2 13.8761 19.9762 14.1 19.7 14.1H9.10005C8.82391 14.1 8.60005 13.8761 8.60005 13.6V10.4Z" fill="black"/>
<path d="M20.2 15.2C20.2 14.9239 19.9762 14.7 19.7 14.7H9.10005C8.82391 14.7 8.60005 14.9239 8.60005 15.2V18.4C8.60005 18.6761 8.82391 18.9 9.10005 18.9H19.7C19.9762 18.9 20.2 18.6761 20.2 18.4V15.2Z" fill="black"/>
</svg>
