<svg width="24" height="24" viewBox="0 0 24 24" fill="none" xmlns="http://www.w3.org/2000/svg">
<path d="M7.9998 5.59961C7.9998 5.32347 7.77595 5.09961 7.4998 5.09961H4.2998C4.02366 5.09961 3.7998 5.32347 3.7998 5.59961V8.79961C3.7998 9.07575 4.02366 9.29961 4.2998 9.29961H7.4998C7.77595 9.29961 7.9998 9.07575 7.9998 8.79961V5.59961Z" fill="black"/>
<path d="M7.9998 10.3996C7.9998 10.1235 7.77595 9.89961 7.4998 9.89961H4.2998C4.02366 9.89961 3.7998 10.1235 3.7998 10.3996V13.5996C3.7998 13.8758 4.02366 14.0996 4.2998 14.0996H7.4998C7.77595 14.0996 7.9998 13.8758 7.9998 13.5996V10.3996Z" fill="black"/>
<path d="M3.7998 15.1996C3.7998 14.9235 4.02366 14.6996 4.2998 14.6996H7.4998C7.77595 14.6996 7.9998 14.9235 7.9998 15.1996V18.3996C7.9998 18.6758 7.77595 18.8996 7.4998 18.8996H4.2998C4.02366 18.8996 3.7998 18.6758 3.7998 18.3996V15.1996Z" fill="black"/>
<path d="M20.1998 5.59961C20.1998 5.32347 19.9759 5.09961 19.6998 5.09961H9.0998C8.82366 5.09961 8.5998 5.32347 8.5998 5.59961V8.79961C8.5998 9.07575 8.82366 9.29961 9.0998 9.29961H19.6998C19.9759 9.29961 20.1998 9.07575 20.1998 8.79961V5.59961Z" fill="black"/>
<path d="M8.5998 10.3996C8.5998 10.1235 8.82366 9.89961 9.0998 9.89961H19.6998C19.9759 9.89961 20.1998 10.1235 20.1998 10.3996V13.5996C20.1998 13.8758 19.9759 14.0996 19.6998 14.0996H9.0998C8.82366 14.0996 8.5998 13.8758 8.5998 13.5996V10.3996Z" fill="black"/>
<path d="M20.1998 15.1996C20.1998 14.9235 19.9759 14.6996 19.6998 14.6996H9.0998C8.82366 14.6996 8.5998 14.9235 8.5998 15.1996V18.3996C8.5998 18.6758 8.82366 18.8996 9.0998 18.8996H19.6998C19.9759 18.8996 20.1998 18.6758 20.1998 18.3996V15.1996Z" fill="black"/>
</svg>
