<svg width="24" height="24" viewBox="0 0 24 24" fill="none" xmlns="http://www.w3.org/2000/svg">
<path d="M16.6874 15.1275C17.9319 13.4679 18.6 11.9982 18.6 10.2866C18.6 6.81634 15.7811 4 12.3 4C8.81887 4 6 6.81634 6 10.2866C6 12.0095 6.62786 13.4443 7.83998 15.0745C8.71549 16.2519 9.83672 17.4594 11.1872 18.9138L11.2696 19.0025L10.613 19.7657L10.4969 19.6406C7.18437 16.0731 5 13.7205 5 10.2866C5 6.26232 8.26832 3 12.3 3C16.3317 3 19.6 6.26232 19.6 10.2866C19.6 13.6558 17.357 16.0892 14.2207 19.4916C13.8183 19.9281 13.4013 20.3805 12.9725 20.8528C12.7513 21.0964 12.527 21.3453 12.3 21.6C12.0757 21.3523 11.855 21.1105 11.638 20.8743L12.2948 20.1108L12.295 20.1111C12.7241 19.6389 13.1363 19.1918 13.5305 18.7642C14.7701 17.4198 15.8327 16.2673 16.6874 15.1275Z" fill="black"/>
<path fill-rule="evenodd" clip-rule="evenodd" d="M15.2 10.5C15.2 12.1016 13.9016 13.4 12.3 13.4C10.6984 13.4 9.4 12.1016 9.4 10.5C9.4 8.89837 10.6984 7.6 12.3 7.6C13.9016 7.6 15.2 8.89837 15.2 10.5ZM14.2 10.5C14.2 11.5493 13.3493 12.4 12.3 12.4C11.2507 12.4 10.4 11.5493 10.4 10.5C10.4 9.45066 11.2507 8.6 12.3 8.6C13.3493 8.6 14.2 9.45066 14.2 10.5Z" fill="black"/>
</svg>
