<svg width="24" height="24" viewBox="0 0 24 24" fill="none" xmlns="http://www.w3.org/2000/svg">
<path d="M16.3876 14.8277C17.6321 13.1681 18.3002 11.6984 18.3002 9.98679C18.3002 6.51653 15.4813 3.7002 12.0002 3.7002C8.51907 3.7002 5.7002 6.51653 5.7002 9.98679C5.7002 11.7096 6.32805 13.1445 7.54017 14.7747C8.41568 15.9521 9.53691 17.1596 10.8874 18.614L10.9698 18.7027L10.3132 19.4659L10.1971 19.3408C6.88457 15.7733 4.7002 13.4207 4.7002 9.98679C4.7002 5.96252 7.96852 2.7002 12.0002 2.7002C16.0319 2.7002 19.3002 5.96252 19.3002 9.98679C19.3002 13.356 17.0572 15.7894 13.9208 19.1918C13.5185 19.6283 13.1015 20.0807 12.6727 20.553C12.4515 20.7966 12.2272 21.0455 12.0002 21.3002C11.7759 21.0525 11.5552 20.8107 11.3382 20.5745L11.995 19.811L11.9952 19.8113C12.4243 19.339 12.8364 18.892 13.2307 18.4644C14.4703 17.12 15.5329 15.9675 16.3876 14.8277Z" fill="black"/>
<path fill-rule="evenodd" clip-rule="evenodd" d="M14.9002 10.2002C14.9002 11.8018 13.6018 13.1002 12.0002 13.1002C10.3986 13.1002 9.1002 11.8018 9.1002 10.2002C9.1002 8.59857 10.3986 7.3002 12.0002 7.3002C13.6018 7.3002 14.9002 8.59857 14.9002 10.2002ZM13.9002 10.2002C13.9002 11.2495 13.0495 12.1002 12.0002 12.1002C10.9509 12.1002 10.1002 11.2495 10.1002 10.2002C10.1002 9.15085 10.9509 8.3002 12.0002 8.3002C13.0495 8.3002 13.9002 9.15085 13.9002 10.2002Z" fill="black"/>
</svg>
