<svg width="639" height="108" viewBox="0 0 639 108" fill="none" xmlns="http://www.w3.org/2000/svg">
<path d="M603.972 107.64C598.532 107.64 593.492 107 588.852 105.72C584.212 104.44 580.012 102.8 576.252 100.8C572.492 98.8001 569.132 96.6801 566.172 94.4401L576.972 77.0401C580.332 80.1601 583.572 82.5601 586.692 84.2401C589.812 85.9201 593.052 87.0801 596.412 87.7201C599.852 88.3601 603.572 88.6801 607.572 88.6801C611.012 88.6801 613.772 88.2401 615.852 87.3601C617.932 86.4001 618.972 85.2001 618.972 83.7601C618.972 82.5601 617.972 81.6401 615.972 81.0001C613.972 80.2801 611.412 79.6801 608.292 79.2001C605.172 78.6401 601.892 77.9601 598.452 77.1601C593.572 75.8801 589.012 74.4001 584.772 72.7201C580.532 71.0401 577.092 68.7601 574.452 65.8801C571.892 63.0001 570.612 59.1601 570.612 54.3601C570.612 50.5201 571.532 47.1601 573.372 44.2801C575.212 41.3201 577.652 38.8801 580.692 36.9601C583.812 34.9601 587.332 33.4801 591.252 32.5201C595.172 31.5601 599.212 31.0801 603.372 31.0801C610.572 31.0801 616.772 31.9601 621.972 33.7201C627.252 35.4001 632.292 37.6401 637.092 40.4401L626.172 57.0001C623.772 55.3201 621.012 53.8801 617.892 52.6801C614.852 51.4001 611.772 50.4401 608.652 49.8001C605.612 49.0801 602.772 48.7201 600.132 48.7201C597.252 48.7201 594.972 49.1601 593.292 50.0401C591.692 50.9201 590.892 52.1601 590.892 53.7601C590.892 54.7201 591.892 55.6401 593.892 56.5201C595.972 57.3201 599.892 58.4001 605.652 59.7601C609.092 60.5601 612.732 61.4001 616.572 62.2801C620.412 63.0801 624.012 64.2401 627.372 65.7601C630.812 67.2001 633.572 69.3201 635.652 72.1201C637.812 74.8401 638.892 78.4801 638.892 83.0401C638.892 90.7201 635.812 96.7201 629.652 101.04C623.492 105.44 614.932 107.64 603.972 107.64Z" fill="#111111"/>
<path d="M440.579 107.52C435.459 107.52 431.219 106.6 427.859 104.76C424.579 103 421.939 100.56 419.939 97.4404C418.019 94.3204 416.579 90.8404 415.619 87.0004C414.739 83.0804 414.139 79.0404 413.819 74.8804C413.579 70.6404 413.459 66.5604 413.459 62.6404C413.459 58.1604 413.579 53.6004 413.819 48.9604C414.139 44.3204 414.5 38.4004 415.619 32.4004L436.739 32.4004C436.499 34.0804 436.139 36.6004 435.659 39.9604C435.179 43.3204 434.739 47.1604 434.339 51.4804C433.939 55.8004 433.739 60.3204 433.739 65.0404C433.739 72.8004 434.419 78.5604 435.779 82.3204C437.139 86.0004 439.179 87.8404 441.899 87.8404C447.339 87.8404 451.339 83.8804 453.899 75.9604C456.459 68.0404 457.739 55.5204 457.739 38.4004V32.4004L468 32.4004H480C479 40.5004 478.339 46.8404 477.779 53.1604C477.219 59.4804 476.859 64.8004 476.699 69.1204C476.539 73.3604 476.459 76.2004 476.459 77.6404C476.459 81.3204 476.779 83.9604 477.419 85.5604C478.059 87.0804 479.179 87.8404 480.779 87.8404C481.579 87.8404 482.459 87.6804 483.419 87.3604C484.379 87.0404 485.499 86.4804 486.779 85.6804L485.939 106.32C482.899 106.8 480.259 107.04 478.019 107.04C474.179 107.04 471.019 106.32 468.539 104.88C466.139 103.44 464.219 101.52 462.779 99.1204C460.299 101.76 457.219 103.8 453.539 105.24C449.939 106.76 445.619 107.52 440.579 107.52Z" fill="#111111"/>
<path d="M337.877 106.32C337.877 98.6798 337.877 92.1798 337.877 85.1998C337.877 77.1798 337.877 70.8799 337.877 62.2798C337.877 53.6798 337.877 47.1798 337.877 39.4798C337.877 31.5598 337.877 25.6798 337.877 18.4798C337.877 11.6798 337.877 6.67984 337.877 0.839844L363.077 1.07984C362.597 5.63984 362.117 10.7598 361.637 16.4398C361.237 22.1198 360.837 28.1598 360.437 34.5598C362.757 33.5998 365.237 32.8798 367.877 32.3998C370.597 31.8398 373.517 31.5598 376.637 31.5598C380.877 31.5598 384.917 32.2798 388.757 33.7198C392.677 35.0798 396.197 37.1998 399.317 40.0798C402.437 42.9598 404.877 46.6798 406.637 51.2398C408.477 55.7998 409.397 61.2798 409.397 67.6798C409.397 74.4799 408.437 80.3598 406.517 85.3198C404.597 90.2798 401.997 94.3599 398.717 97.5599C395.437 100.76 391.717 103.12 387.557 104.64C383.477 106.24 379.277 107.04 374.957 107.04C371.677 107.04 368.597 106.6 365.717 105.72C362.917 104.84 360.317 103.68 357.917 102.24C357.917 103.52 357.917 104.8 357.917 106.08L337.877 106.32ZM373.877 51.7198C367.877 51.7198 362.997 53.4798 359.237 56.9998C358.917 64.3598 358.637 71.5598 358.397 78.5998C362.317 83.7998 367.797 86.3998 374.837 86.3998C377.157 86.3998 379.477 85.8798 381.797 84.8398C384.197 83.7198 386.197 81.8398 387.797 79.1998C389.397 76.5598 390.197 72.8798 390.197 68.1598C390.197 62.7998 388.797 58.7198 385.997 55.9198C383.277 53.1198 379.237 51.7198 373.877 51.7198Z" fill="#111111"/>
<path d="M561.52 106.48C561.52 98.84 561.519 92.34 561.52 85.36C561.52 77.34 561.52 71.04 561.52 62.44C561.52 53.84 561.52 47.34 561.52 39.64C561.52 31.72 561.52 25.84 561.52 18.64C561.52 11.84 561.52 6.84 561.52 1L536.32 1.24C536.8 5.8 537.28 10.92 537.76 16.6C538.16 22.28 538.56 28.32 538.96 34.72C536.64 33.76 534.16 33.04 531.52 32.56C528.8 32 525.88 31.72 522.76 31.72C518.52 31.72 514.48 32.44 510.64 33.88C506.72 35.24 503.2 37.36 500.08 40.24C496.96 43.12 494.52 46.84 492.76 51.4C490.92 55.96 490 61.44 490 67.84C490 74.64 490.96 80.52 492.88 85.48C494.8 90.44 497.4 94.52 500.68 97.72C503.96 100.92 507.68 103.28 511.84 104.8C515.92 106.4 520.12 107.2 524.44 107.2C527.72 107.2 530.8 106.76 533.68 105.88C536.48 105 539.08 103.84 541.48 102.4C541.48 103.68 541.48 104.96 541.48 106.24L561.52 106.48ZM525.52 51.88C531.52 51.88 536.4 53.64 540.16 57.16C540.48 64.52 540.76 71.72 541 78.76C537.08 83.96 531.6 86.56 524.56 86.56C522.24 86.56 519.92 86.04 517.6 85C515.2 83.88 513.2 82 511.6 79.36C510 76.72 509.2 73.04 509.2 68.32C509.2 62.96 510.6 58.88 513.4 56.08C516.12 53.28 520.16 51.88 525.52 51.88Z" fill="#111111"/>
<path d="M257.935 107.52C251.295 107.52 245.655 102.36 241.015 92.0402C239.415 88.3602 238.015 84.3202 236.815 79.9202C235.615 75.5202 234.575 71.0402 233.695 66.4802C232.895 61.9202 232.215 57.5602 231.655 53.4002C231.175 49.1602 230.775 45.4402 230.455 42.2402C230.215 38.9602 230 34.6802 230.455 30.2402H249.535C250.495 48.4002 251.935 62.2002 253.855 71.6402C255.855 81.0802 257.375 85.8002 258.415 85.8002C258.975 85.8002 259.655 84.6802 260.455 82.4402C261.335 80.2002 262.295 77.2402 263.335 73.5602C264.375 69.8002 265.375 65.6802 266.335 61.2002C267.295 56.7202 268.135 52.2002 268.855 47.6402C267.895 41.8002 267.82 33.6802 267.5 30.2402H287.215V31.6802C287.215 34.9602 287.455 41.5602 287.935 45.9602C288.415 50.3602 289.015 54.9202 289.735 59.6402C290.455 64.2802 291.215 68.6002 292.015 72.6002C292.895 76.6002 293.735 79.8402 294.535 82.3202C295.335 84.8002 296.015 86.0402 296.575 86.0402C297.055 86.0402 297.735 84.9602 298.615 82.8002C299.495 80.6402 300.455 77.6802 301.495 73.9202C302.615 70.1602 303.735 65.8802 304.855 61.0802C305.975 56.2002 307.055 51.0802 308.095 45.7202C309.135 40.2802 310.36 35.6002 311 30.2402H331.5C329.5 39.6802 327.415 48.8802 325.495 56.4002C323.655 63.8402 321.695 70.7602 319.615 77.1602C317.535 83.4802 315.495 88.8002 313.495 93.1202C309.015 102.64 303.455 107.4 296.815 107.4C294.655 107.4 292.175 106.72 289.375 105.36C286.655 104.08 284.135 101.36 281.815 97.2002C281.015 95.6802 280.215 93.8402 279.415 91.6802C278.615 89.5202 277.855 87.1202 277.135 84.4802C276.175 87.4402 275.215 90.0802 274.255 92.4002C270.015 102.48 264.575 107.52 257.935 107.52Z" fill="#111111"/>
<path d="M188.518 107.28C180.838 107.28 174.078 105.76 168.238 102.72C162.478 99.7603 157.958 95.6003 154.678 90.2403C151.478 84.8803 149.878 78.6803 149.878 71.6403C149.878 67.4003 150.598 62.9603 152.038 58.3203C153.478 53.6003 155.798 49.2003 158.998 45.1203C162.198 41.0403 166.398 37.7203 171.598 35.1603C176.878 32.6003 183.278 31.3203 190.798 31.3203C196.238 31.3203 200.798 31.9203 204.478 33.1203C208.238 34.3203 211.278 35.8803 213.598 37.8003C215.998 39.7203 217.798 41.7603 218.998 43.9203C220.278 46.0803 221.118 48.1603 221.518 50.1603C221.998 52.0803 222.238 53.6803 222.238 54.9603C222.238 62.7203 218.958 68.7203 212.398 72.9603C205.918 77.1203 196.718 79.2003 184.798 79.2003C182.078 79.2003 179.478 79.0803 176.998 78.8403C174.598 78.6003 172.358 78.3203 170.278 78.0003C171.798 82.0003 174.318 84.9603 177.838 86.8803C181.358 88.7203 184.998 89.6403 188.758 89.6403C194.198 89.6403 198.998 88.6803 203.158 86.7603C207.318 84.7603 211.238 81.7203 214.918 77.6403L225.598 93.0003C223.038 95.0803 220.158 97.2403 216.958 99.4803C213.838 101.72 209.998 103.56 205.438 105C200.878 106.52 195.238 107.28 188.518 107.28ZM191.158 49.3203C186.438 49.3203 182.278 50.5203 178.678 52.9203C175.078 55.3203 172.438 58.4803 170.758 62.4003C172.758 62.7203 174.718 63.0003 176.638 63.2403C178.638 63.4003 180.598 63.4803 182.518 63.4803C184.278 63.4803 186.278 63.3203 188.518 63.0003C190.838 62.6803 193.078 62.2003 195.238 61.5603C197.478 60.9203 199.318 60.1203 200.758 59.1603C202.198 58.1203 202.918 56.9203 202.918 55.5603C202.918 54.9203 202.598 54.1203 201.958 53.1603C201.318 52.2003 200.158 51.3203 198.478 50.5203C196.798 49.7203 194.358 49.3203 191.158 49.3203Z" fill="#111111"/>
<path d="M95.2812 107.04C95.6012 100.4 95.8413 93.7598 96.0013 87.1199C96.1613 80.4799 96.2412 73.9198 96.2412 67.4398C96.1612 61.5198 96.0412 55.6798 95.8812 49.9198C95.8012 44.0798 95.6012 37.8398 95.2812 32.3998H115.441C115.521 35.3598 115.641 38.3998 115.801 41.5198C118.361 38.3198 121.321 35.7598 124.681 33.8398C128.121 31.8398 132.041 30.8398 136.441 30.8398C138.121 30.8398 140.281 31.0798 142.921 31.5598C145.561 32.0398 148.241 32.9598 150.961 34.3198L148.681 54.5998C146.681 53.3998 144.521 52.5598 142.201 52.0798C139.961 51.5198 138.081 51.2398 136.561 51.2398C131.441 51.2398 127.081 53.5598 123.481 58.1998C119.961 62.7598 117.561 69.1198 116.281 77.2798C116.281 82.8798 116.201 88.2398 116.041 93.3598C115.961 98.3998 115.761 102.96 115.441 107.04H95.2812Z" fill="#111111"/>
<path d="M3.96 105.96C3.88 105.08 3.84 104.12 3.84 103.08C3.84 102.04 3.84 100.84 3.84 99.48C3.84 96.04 3.92 91.96 4.08 87.24C4.24 82.44 4.48 77.36 4.8 72C5.12 66.56 5.44 61.12 5.76 55.68C6.08 50.16 6.4 44.88 6.72 39.84C7.12 34.8 7.48 30.28 7.8 26.28C6.04 26.84 1.36 27.36 0 27.84V7.67999C9.04 5.11999 17.44 3.19999 25.2 1.91999C33.04 0.639997 40.12 0 46.44 0C59.32 0 69.16 2.44 75.96 7.32C82.76 12.2 86.16 19.28 86.16 28.56C86.16 33.84 85 38.28 82.68 41.88C80.36 45.4 77.08 48.32 72.84 50.64C83.24 55.92 88.44 64.52 88.44 76.44C88.44 81.72 87.44 86.16 85.44 89.76C83.52 93.28 81.04 96.12 78 98.28C74.96 100.44 71.72 102.04 68.28 103.08C64.92 104.2 61.72 104.92 58.68 105.24C55.72 105.64 53.4 105.84 51.72 105.84C47.56 105.84 43.12 105.44 38.4 104.64C33.68 103.84 29.08 102.64 24.6 101.04C24.6 102.64 24.6 104.16 24.6 105.6L3.96 105.96ZM46.92 20.04C44.04 20.04 41 20.2 37.8 20.52C34.68 20.76 31.56 21.16 28.44 21.72C27.96 27.56 27.48 34.36 27 42.12C28.04 42.2 29.08 42.24 30.12 42.24C31.24 42.24 32.36 42.24 33.48 42.24C54.6 42.24 65.16 37.92 65.16 29.28C65.16 26.4 63.52 24.16 60.24 22.56C57.04 20.88 52.6 20.04 46.92 20.04ZM36.24 61.2C34.56 61.2 32.84 61.2 31.08 61.2C29.4 61.2 27.68 61.24 25.92 61.32C25.76 64.84 25.6 68.36 25.44 71.88C25.36 75.4 25.24 78.88 25.08 82.32C29.56 83.68 33.96 84.68 38.28 85.32C42.6 85.88 46.32 86.16 49.44 86.16C56.08 86.16 60.84 85.36 63.72 83.76C66.6 82.08 68.04 79.36 68.04 75.6C68.04 70.96 65.28 67.4 59.76 64.92C54.32 62.44 46.48 61.2 36.24 61.2Z" fill="#111111"/>
</svg>
