<svg width="24" height="24" viewBox="0 0 24 24" fill="none" xmlns="http://www.w3.org/2000/svg">
<path fill-rule="evenodd" clip-rule="evenodd" d="M4.5 13.9C5.60457 13.9 6.5 13.0046 6.5 11.9C6.5 10.7954 5.60457 9.9 4.5 9.9C3.39543 9.9 2.5 10.7954 2.5 11.9C2.5 13.0046 3.39543 13.9 4.5 13.9ZM4.5 12.9C5.05228 12.9 5.5 12.4523 5.5 11.9C5.5 11.3477 5.05228 10.9 4.5 10.9C3.94772 10.9 3.5 11.3477 3.5 11.9C3.5 12.4523 3.94772 12.9 4.5 12.9Z" fill="black"/>
<path fill-rule="evenodd" clip-rule="evenodd" d="M11.9556 13.9C13.0601 13.9 13.9556 13.0046 13.9556 11.9C13.9556 10.7954 13.0601 9.9 11.9556 9.9C10.851 9.9 9.95557 10.7954 9.95557 11.9C9.95557 13.0046 10.851 13.9 11.9556 13.9ZM11.9556 12.9C12.5079 12.9 12.9556 12.4523 12.9556 11.9C12.9556 11.3477 12.5079 10.9 11.9556 10.9C11.4033 10.9 10.9556 11.3477 10.9556 11.9C10.9556 12.4523 11.4033 12.9 11.9556 12.9Z" fill="black"/>
<path fill-rule="evenodd" clip-rule="evenodd" d="M21.4111 12.0223C21.4111 13.1268 20.5157 14.0223 19.4111 14.0223C18.3065 14.0223 17.4111 13.1268 17.4111 12.0223C17.4111 10.9177 18.3065 10.0223 19.4111 10.0223C20.5157 10.0223 21.4111 10.9177 21.4111 12.0223ZM20.4111 12.0223C20.4111 12.5746 19.9634 13.0223 19.4111 13.0223C18.8588 13.0223 18.4111 12.5746 18.4111 12.0223C18.4111 11.47 18.8588 11.0223 19.4111 11.0223C19.9634 11.0223 20.4111 11.47 20.4111 12.0223Z" fill="black"/>
</svg>
