<svg width="24" height="24" viewBox="0 0 24 24" fill="none" xmlns="http://www.w3.org/2000/svg">
<path d="M6.5 11.9C6.5 13.0046 5.60457 13.9 4.5 13.9C3.39543 13.9 2.5 13.0046 2.5 11.9C2.5 10.7954 3.39543 9.9 4.5 9.9C5.60457 9.9 6.5 10.7954 6.5 11.9Z" fill="black"/>
<path d="M13.9556 11.9C13.9556 13.0046 13.0601 13.9 11.9556 13.9C10.851 13.9 9.95557 13.0046 9.95557 11.9C9.95557 10.7954 10.851 9.9 11.9556 9.9C13.0601 9.9 13.9556 10.7954 13.9556 11.9Z" fill="black"/>
<path d="M19.4111 14.0223C20.5157 14.0223 21.4111 13.1268 21.4111 12.0223C21.4111 10.9177 20.5157 10.0223 19.4111 10.0223C18.3066 10.0223 17.4111 10.9177 17.4111 12.0223C17.4111 13.1268 18.3066 14.0223 19.4111 14.0223Z" fill="black"/>
</svg>
