<svg width="24" height="24" viewBox="0 0 24 24" fill="none" xmlns="http://www.w3.org/2000/svg">
<path fill-rule="evenodd" clip-rule="evenodd" d="M4.5 13.9004C5.60457 13.9004 6.5 13.005 6.5 11.9004C6.5 10.7958 5.60457 9.90039 4.5 9.90039C3.39543 9.90039 2.5 10.7958 2.5 11.9004C2.5 13.005 3.39543 13.9004 4.5 13.9004ZM4.5 12.9004C5.05228 12.9004 5.5 12.4527 5.5 11.9004C5.5 11.3481 5.05228 10.9004 4.5 10.9004C3.94772 10.9004 3.5 11.3481 3.5 11.9004C3.5 12.4527 3.94772 12.9004 4.5 12.9004Z" fill="black"/>
<path fill-rule="evenodd" clip-rule="evenodd" d="M11.9556 13.9004C13.0601 13.9004 13.9556 13.005 13.9556 11.9004C13.9556 10.7958 13.0601 9.90039 11.9556 9.90039C10.851 9.90039 9.95557 10.7958 9.95557 11.9004C9.95557 13.005 10.851 13.9004 11.9556 13.9004ZM11.9556 12.9004C12.5079 12.9004 12.9556 12.4527 12.9556 11.9004C12.9556 11.3481 12.5079 10.9004 11.9556 10.9004C11.4033 10.9004 10.9556 11.3481 10.9556 11.9004C10.9556 12.4527 11.4033 12.9004 11.9556 12.9004Z" fill="black"/>
<path fill-rule="evenodd" clip-rule="evenodd" d="M21.4111 12.0227C21.4111 13.1272 20.5157 14.0227 19.4111 14.0227C18.3065 14.0227 17.4111 13.1272 17.4111 12.0227C17.4111 10.9181 18.3065 10.0227 19.4111 10.0227C20.5157 10.0227 21.4111 10.9181 21.4111 12.0227ZM20.4111 12.0227C20.4111 12.5749 19.9634 13.0227 19.4111 13.0227C18.8588 13.0227 18.4111 12.5749 18.4111 12.0227C18.4111 11.4704 18.8588 11.0227 19.4111 11.0227C19.9634 11.0227 20.4111 11.4704 20.4111 12.0227Z" fill="black"/>
</svg>
