<svg width="24" height="24" viewBox="0 0 24 24" fill="none" xmlns="http://www.w3.org/2000/svg">
<path d="M6.5 11.9004C6.5 13.005 5.60457 13.9004 4.5 13.9004C3.39543 13.9004 2.5 13.005 2.5 11.9004C2.5 10.7958 3.39543 9.90039 4.5 9.90039C5.60457 9.90039 6.5 10.7958 6.5 11.9004Z" fill="black"/>
<path d="M13.9556 11.9004C13.9556 13.005 13.0601 13.9004 11.9556 13.9004C10.851 13.9004 9.95557 13.005 9.95557 11.9004C9.95557 10.7958 10.851 9.90039 11.9556 9.90039C13.0601 9.90039 13.9556 10.7958 13.9556 11.9004Z" fill="black"/>
<path d="M19.4111 14.0227C20.5157 14.0227 21.4111 13.1272 21.4111 12.0227C21.4111 10.9181 20.5157 10.0227 19.4111 10.0227C18.3066 10.0227 17.4111 10.9181 17.4111 12.0227C17.4111 13.1272 18.3066 14.0227 19.4111 14.0227Z" fill="black"/>
</svg>
