<svg width="24" height="24" viewBox="0 0 24 24" fill="none" xmlns="http://www.w3.org/2000/svg">
<path fill-rule="evenodd" clip-rule="evenodd" d="M11.8293 3.90039C8.51827 3.90039 5.83418 6.58448 5.83418 9.89546V15.4655H17.8243V9.89546C17.8243 6.58448 15.1402 3.90039 11.8293 3.90039ZM16.8018 14.443V9.89546C16.8018 7.14921 14.5755 4.92293 11.8293 4.92293C9.083 4.92293 6.85672 7.14921 6.85672 9.89546V14.443H16.8018Z" fill="black"/>
<path d="M19.2828 17.9049H4.7002V16.8823H19.2828V17.9049Z" fill="black"/>
<path d="M8.10254 20.533H15.8799V19.5104H8.10254V20.533Z" fill="black"/>
<path d="M20.2002 4.65039C20.2002 5.61689 19.4167 6.40039 18.4502 6.40039C17.4837 6.40039 16.7002 5.61689 16.7002 4.65039C16.7002 3.68389 17.4837 2.90039 18.4502 2.90039C19.4167 2.90039 20.2002 3.68389 20.2002 4.65039Z" fill="#FE2E00"/>
</svg>
