<svg width="24" height="24" viewBox="0 0 24 24" fill="none" xmlns="http://www.w3.org/2000/svg">
<path fill-rule="evenodd" clip-rule="evenodd" d="M16.0623 4.11281L9.75424 9.75687C9.62589 9.87171 9.45971 9.93521 9.28749 9.9352H6.32837L10.071 13.6778L3.70705 20.0418L2.99994 19.3347L8.65679 13.6778L5.10913 10.1302C4.66815 9.68921 4.98047 8.93521 5.6041 8.9352H9.17287L15.607 3.17833C15.8839 2.93061 16.3061 2.94233 16.5688 3.20503L20.5438 7.1801C20.8065 7.4428 20.8182 7.86497 20.5705 8.14183L17.6921 11.3589L14.8136 14.576V18.1447C14.8136 18.7684 14.0596 19.0807 13.6187 18.6397L10.4246 15.4456L11.1317 14.7385L13.8136 17.4205V14.4614C13.8136 14.2891 13.8771 14.123 13.992 13.9946L19.636 7.68653L16.0623 4.11281Z" fill="black"/>
</svg>
