<svg width="24" height="24" viewBox="0 0 24 24" fill="none" xmlns="http://www.w3.org/2000/svg">
<path d="M3.59961 20.2645L9.5797 14.2844C9.58361 14.2805 9.58361 14.2742 9.5797 14.2703L5.64925 10.3398C5.64299 10.3336 5.64736 10.3229 5.65622 10.3228L9.33344 10.286C9.33593 10.2859 9.33832 10.285 9.34015 10.2833L16.3153 3.80638C16.3192 3.80272 16.3253 3.80284 16.3292 3.80664L20.4548 7.93232C20.4586 7.93607 20.4588 7.94209 20.4552 7.94605L14.1176 15.0604C14.1158 15.0624 14.1149 15.0649 14.1151 15.0676L14.3252 18.9911C14.3257 19.0003 14.3146 19.0052 14.3082 18.9988L11.1832 15.8738" stroke="black"/>
</svg>
