<svg width="24" height="24" viewBox="0 0 24 24" fill="none" xmlns="http://www.w3.org/2000/svg">
<path fill-rule="evenodd" clip-rule="evenodd" d="M15.8034 7.27236C15.8034 9.411 14.0696 11.1447 11.931 11.1447C9.79236 11.1447 8.05864 9.411 8.05864 7.27236C8.05864 5.13371 9.79236 3.4 11.931 3.4C14.0696 3.4 15.8034 5.13371 15.8034 7.27236ZM14.7715 7.27236C14.7715 8.84114 13.4998 10.1129 11.931 10.1129C10.3622 10.1129 9.09046 8.84114 9.09046 7.27236C9.09046 5.70357 10.3622 4.43182 11.931 4.43182C13.4998 4.43182 14.7715 5.70357 14.7715 7.27236Z" fill="black"/>
<path d="M4.5 13.9198L18.4841 13.9198V20.5H19.5159V13.2H19.5V12.888L4.5 12.888V13.9198Z" fill="black"/>
<path d="M4.53901 15.5453V20.5155H5.5942V15.5453H4.53901Z" fill="black"/>
</svg>
