<svg width="24" height="24" viewBox="0 0 24 24" fill="none" xmlns="http://www.w3.org/2000/svg">
<path fill-rule="evenodd" clip-rule="evenodd" d="M15.8034 7.27275C15.8034 9.41139 14.0696 11.1451 11.931 11.1451C9.79236 11.1451 8.05864 9.41139 8.05864 7.27275C8.05864 5.1341 9.79236 3.40039 11.931 3.40039C14.0696 3.40039 15.8034 5.1341 15.8034 7.27275ZM14.7715 7.27275C14.7715 8.84153 13.4998 10.1133 11.931 10.1133C10.3622 10.1133 9.09046 8.84153 9.09046 7.27275C9.09046 5.70396 10.3622 4.43221 11.931 4.43221C13.4998 4.43221 14.7715 5.70396 14.7715 7.27275Z" fill="black"/>
<path d="M4.5 13.9202L18.4841 13.9202V20.5004H19.5159V13.2004H19.5V12.8884L4.5 12.8884V13.9202Z" fill="black"/>
<path d="M4.53901 15.5457V20.5159H5.5942V15.5457H4.53901Z" fill="black"/>
</svg>
