<svg width="24" height="24" viewBox="0 0 24 24" fill="none" xmlns="http://www.w3.org/2000/svg">
<path d="M2.6028 12.2446C2.66286 14.5488 3.5674 16.7504 5.14452 18.4313L5.96713 17.6598C4.57927 16.1805 3.78327 14.243 3.73041 12.2153C3.67758 10.1875 4.37158 8.21096 5.68051 6.66174C6.98945 5.11213 8.82209 4.09768 10.8301 3.81057C12.8381 3.52385 14.8814 3.98479 16.5718 5.10588C18.2621 6.22736 19.4816 7.93049 19.9985 9.89182C20.5154 11.8531 20.2936 13.936 19.3753 15.7446C18.457 17.5531 16.9062 18.9613 15.0177 19.7016C13.1292 20.4414 11.0345 20.4617 9.13198 19.7586L8.74094 20.8168C10.9029 21.6156 13.2832 21.5926 15.4293 20.7516C17.5753 19.9106 19.3376 18.3106 20.3811 16.2555C21.4246 14.2 21.6767 11.8332 21.0893 9.60432C20.5019 7.37541 19.1161 5.43986 17.1952 4.16604C15.2744 2.89221 12.9524 2.36799 10.6706 2.69416C8.38879 3.01994 6.30624 4.17268 4.81882 5.93361C3.33139 7.69455 2.54277 9.94026 2.6028 12.2446Z" fill="#111111"/>
<path d="M12.4715 11.234C11.609 11.759 11.0965 12.2715 11.084 13.9465V14.009H12.159V13.9465C12.184 12.8653 12.4652 12.384 13.2465 11.909C14.0215 11.434 14.484 10.7528 14.484 9.7715C14.484 8.39025 13.4652 7.38401 11.8965 7.38401C10.4652 7.38401 9.32148 8.26525 9.25898 9.78401H10.3965C10.4652 8.75276 11.184 8.32775 11.8965 8.334C12.7215 8.32775 13.384 8.87151 13.384 9.72151C13.384 10.4215 12.9902 10.9215 12.4715 11.234Z" fill="#111111"/>
<path d="M11.659 15.0215C11.2215 15.0215 10.8465 15.384 10.859 15.8215C10.8465 16.2653 11.2215 16.6278 11.659 16.634C12.1027 16.6278 12.4652 16.2653 12.459 15.8215C12.4652 15.384 12.1027 15.0215 11.659 15.0215Z" fill="#111111"/>
</svg>
