<svg width="24" height="24" viewBox="0 0 24 24" fill="none" xmlns="http://www.w3.org/2000/svg">
<path d="M2.60317 12.2449C2.66323 14.5492 3.56777 16.7508 5.14489 18.4317L5.9675 17.6602C4.57963 16.1809 3.78364 14.2434 3.73078 12.2156C3.67795 10.1879 4.37194 8.21135 5.68088 6.66213C6.98981 5.11252 8.82245 4.09807 10.8304 3.81096C12.8384 3.52424 14.8818 3.98518 16.5721 5.10627C18.2625 6.22775 19.482 7.93088 19.9989 9.89221C20.5158 11.8535 20.294 13.9363 19.3757 15.7449C18.4574 17.5535 16.9066 18.9617 15.0181 19.702C13.1295 20.4418 11.0349 20.4621 9.13234 19.759L8.7413 20.8172C10.9033 21.616 13.2836 21.593 15.4296 20.752C17.5757 19.911 19.338 18.311 20.3815 16.2559C21.425 14.2004 21.677 11.8336 21.0896 9.60471C20.5023 7.3758 19.1165 5.44025 17.1956 4.16643C15.2747 2.8926 12.9528 2.36838 10.6709 2.69455C8.38915 3.02033 6.30661 4.17307 4.81918 5.934C3.33176 7.69494 2.54313 9.94064 2.60317 12.2449Z" fill="black"/>
<path d="M12.4718 11.2344C11.6093 11.7594 11.0968 12.2719 11.0843 13.9469V14.0094H12.1593V13.9469C12.1843 12.8656 12.4656 12.3844 13.2468 11.9094C14.0218 11.4344 14.4843 10.7531 14.4843 9.77189C14.4843 8.39064 13.4656 7.38439 11.8968 7.38439C10.4656 7.38439 9.32184 8.26564 9.25934 9.78439H10.3968C10.4656 8.75314 11.1843 8.32814 11.8968 8.33439C12.7218 8.32814 13.3843 8.87189 13.3843 9.72189C13.3843 10.4219 12.9906 10.9219 12.4718 11.2344Z" fill="black"/>
<path d="M11.6593 15.0219C11.2218 15.0219 10.8468 15.3844 10.8593 15.8219C10.8468 16.2656 11.2218 16.6281 11.6593 16.6344C12.1031 16.6281 12.4656 16.2656 12.4593 15.8219C12.4656 15.3844 12.1031 15.0219 11.6593 15.0219Z" fill="black"/>
</svg>
