<svg width="24" height="24" viewBox="0 0 24 24" fill="none" xmlns="http://www.w3.org/2000/svg">
<path d="M5.50725 4.69412C3.86119 6.15003 2.77724 8.13663 2.44376 10.3087L3.5587 10.4799C3.85216 8.56846 4.80603 6.82024 6.25457 5.53904C7.7031 4.25785 9.55474 3.52465 11.4877 3.46686C13.4207 3.40907 15.3128 4.03034 16.8353 5.22271C18.3575 6.41483 19.4139 8.10246 19.8212 9.99245L19.8071 10.0387L20.7636 10.3306L22.2136 5.58064L21.2571 5.28867L20.4009 8.09361C19.7839 6.62527 18.7997 5.32844 17.5308 4.33465C15.8007 2.97968 13.6506 2.27369 11.454 2.33936C9.25744 2.40503 7.15331 3.23821 5.50725 4.69412Z" fill="black"/>
<path d="M17.9449 18.7582C19.591 17.3023 20.6749 15.3157 21.0084 13.1436L19.8934 12.9724C19.6 14.8839 18.6461 16.6321 17.1976 17.9133C15.7491 19.1945 13.8974 19.9277 11.9644 19.9855C10.0315 20.0433 8.13934 19.422 6.61685 18.2296C5.09504 17.0378 4.0387 15.3507 3.63118 13.4612L3.64569 13.4136L2.68926 13.1217L1.23926 17.8717L2.19569 18.1636L3.05164 15.3597C3.6687 16.8276 4.65269 18.1241 5.92135 19.1177C7.65145 20.4727 9.80159 21.1787 11.9982 21.113C14.1947 21.0473 16.2988 20.2141 17.9449 18.7582Z" fill="black"/>
<path d="M7.52219 14.6884L4.59266 13.7289L4.28138 14.6792L7.2109 15.6388L7.52219 14.6884Z" fill="black"/>
<path d="M18.8602 9.72347L15.9307 8.76388L16.2419 7.81356L19.1715 8.77315L18.8602 9.72347Z" fill="black"/>
</svg>
