<svg width="14" height="14" viewBox="0 0 14 14" fill="none" xmlns="http://www.w3.org/2000/svg">
<path d="M7.07786 14C5.10212 14 3.42838 13.3223 2.05662 11.967C0.685541 10.611 0 8.95633 0 7.003C0 5.04967 0.685541 3.39433 2.05662 2.037C3.4277 0.679667 5.10145 0.000666667 7.07786 0C8.27974 0 9.40512 0.282333 10.454 0.847C11.5022 1.41167 12.3472 2.2 12.9889 3.212V0H14V5.23H8.71183V4.23H12.453C11.9259 3.23333 11.185 2.44567 10.2305 1.867C9.27604 1.28833 8.22514 0.999333 7.07786 1C5.39265 1 3.96023 1.58333 2.78059 2.75C1.60094 3.91667 1.01112 5.33333 1.01112 7C1.01112 8.66667 1.60094 10.0833 2.78059 11.25C3.96023 12.4167 5.39265 13 7.07786 13C8.37546 13 9.54668 12.6333 10.5915 11.9C11.6363 11.1667 12.3694 10.2 12.7907 9H13.8645C13.4183 10.4973 12.5709 11.705 11.3225 12.623C10.0741 13.541 8.65925 14 7.07786 14Z" fill="#111111"/>
</svg>
