<svg width="24" height="24" viewBox="0 0 24 24" fill="none" xmlns="http://www.w3.org/2000/svg">
<path d="M6.86624 6.13514C5.37513 7.45292 4.39321 9.25103 4.09113 11.217L5.10111 11.372C5.36695 9.64189 6.23103 8.05954 7.54322 6.8999C8.8554 5.74026 10.5327 5.07663 12.2838 5.02432C14.0348 4.97202 15.7488 5.53434 17.128 6.61358C18.5069 7.69259 19.4639 9.2201 19.8329 10.9308L19.8201 10.9726L20.6865 11.2369L22 6.93755L21.1336 6.67329L20.358 9.21209C19.799 7.88306 18.9075 6.70928 17.758 5.80978C16.1908 4.58337 14.243 3.94436 12.2532 4.0038C10.2634 4.06324 8.35736 4.81737 6.86624 6.13514Z" fill="#111111"/>
<path d="M18.1331 18.8649C19.6243 17.5471 20.6062 15.749 20.9083 13.783L19.8983 13.628C19.6324 15.3581 18.7684 16.9405 17.4562 18.1001C16.144 19.2597 14.4666 19.9234 12.7156 19.9757C10.9646 20.028 9.25058 19.4657 7.8714 18.3864C6.49284 17.3077 5.53593 15.7806 5.16677 14.0704L5.17991 14.0274L4.31351 13.7631L3 18.0624L3.8664 18.3267L4.64178 15.7887C5.20076 17.1174 6.09212 18.2909 7.24136 19.1902C8.80861 20.4166 10.7564 21.0556 12.7462 20.9962C14.736 20.9368 16.642 20.1826 18.1331 18.8649Z" fill="#111111"/>
<path d="M8.69152 15.1812L6.03775 14.3127L5.75577 15.1728L8.40953 16.0414L8.69152 15.1812Z" fill="#111111"/>
<path d="M18.9623 10.6873L16.3085 9.81876L16.5905 8.95861L19.2443 9.82716L18.9623 10.6873Z" fill="#111111"/>
</svg>
