<svg width="24" height="24" viewBox="0 0 24 24" fill="none" xmlns="http://www.w3.org/2000/svg">
<path d="M21.3082 13.4438C20.9747 15.6159 19.8908 17.6025 18.2447 19.0584C16.5986 20.5143 14.4945 21.3475 12.298 21.4132C10.1014 21.4789 7.95125 20.7729 6.22115 19.4179C4.49105 18.0629 3.29036 16.1446 2.82772 13.9963L3.93044 13.7588C4.33756 15.6493 5.39417 17.3375 6.91666 18.5298C8.43915 19.7222 10.3313 20.3435 12.2642 20.2857C14.1972 20.2279 16.0489 19.4947 17.4974 18.2135C18.9459 16.9323 19.8998 15.1841 20.1933 13.2726L21.3082 13.4438Z" fill="black"/>
<path d="M2.74357 10.6089C3.07704 8.43683 4.16099 6.45022 5.80705 4.99431C7.45311 3.5384 9.55724 2.70522 11.7538 2.63955C13.9504 2.57388 16.1005 3.27987 17.8306 4.63484C19.5607 5.98982 20.7614 7.90812 21.224 10.0564L20.1213 10.2939C19.7142 8.40339 18.6576 6.71528 17.1351 5.52291C15.6126 4.33053 13.7205 3.70926 11.7875 3.76705C9.85454 3.82484 8.00291 4.55804 6.55437 5.83924C5.10584 7.12044 4.15196 8.86865 3.85851 10.7801L2.74357 10.6089Z" fill="black"/>
<path d="M2.98906 13.4219L1.53906 18.1719L2.49549 18.4638L3.94549 13.7138L2.98906 13.4219Z" fill="black"/>
<path d="M7.82199 14.9886L4.89247 14.029L4.58119 14.9794L7.51071 15.939L7.82199 14.9886Z" fill="black"/>
<path d="M21.0634 10.6308L22.5134 5.88083L21.5569 5.58887L20.1069 10.3389L21.0634 10.6308Z" fill="black"/>
<path d="M16.2305 9.06407L19.16 10.0237L19.4713 9.07334L16.5418 8.11375L16.2305 9.06407Z" fill="black"/>
</svg>
