<svg width="24" height="24" viewBox="0 0 24 24" fill="none" xmlns="http://www.w3.org/2000/svg">
<path fill-rule="evenodd" clip-rule="evenodd" d="M17.2017 10.5229C17.2017 14.1254 14.2464 17.0457 10.6009 17.0457C6.95531 17.0457 4 14.1254 4 10.5229C4 6.92039 6.95531 4 10.6009 4C14.2464 4 17.2017 6.92039 17.2017 10.5229ZM15.7672 10.5229C15.7672 13.3425 13.4542 15.6282 10.6009 15.6282C7.74757 15.6282 5.43452 13.3425 5.43452 10.5229C5.43452 7.70329 7.74757 5.41757 10.6009 5.41757C13.4542 5.41757 15.7672 7.70329 15.7672 10.5229Z" fill="#FE2E00"/>
<path d="M15.4471 16.5033L18.9856 20L20 18.9976L16.4615 15.5009L15.4471 16.5033Z" fill="#FE2E00"/>
</svg>
