<svg width="24" height="24" viewBox="0 0 24 24" fill="none" xmlns="http://www.w3.org/2000/svg">
<path fill-rule="evenodd" clip-rule="evenodd" d="M17.8597 10.4304C17.8597 14.3129 14.7123 17.4603 10.8298 17.4603C6.94723 17.4603 3.7998 14.3129 3.7998 10.4304C3.7998 6.54781 6.94723 3.40039 10.8298 3.40039C14.7123 3.40039 17.8597 6.54781 17.8597 10.4304ZM16.332 10.4304C16.332 13.4691 13.8685 15.9325 10.8298 15.9325C7.791 15.9325 5.32758 13.4691 5.32758 10.4304C5.32758 7.39158 7.791 4.92817 10.8298 4.92817C13.8685 4.92817 16.332 7.39158 16.332 10.4304Z" fill="#FE2E00"/>
<path d="M15.9911 16.8757L19.7596 20.6442L20.8399 19.5639L17.0714 15.7954L15.9911 16.8757Z" fill="#FE2E00"/>
</svg>
