<svg width="24" height="24" viewBox="0 0 24 24" fill="none" xmlns="http://www.w3.org/2000/svg">
<path fill-rule="evenodd" clip-rule="evenodd" d="M17.8599 10.43C17.8599 14.3125 14.7125 17.4599 10.83 17.4599C6.94741 17.4599 3.79999 14.3125 3.79999 10.43C3.79999 6.54742 6.94741 3.4 10.83 3.4C14.7125 3.4 17.8599 6.54742 17.8599 10.43ZM16.3321 10.43C16.3321 13.4687 13.8687 15.9322 10.83 15.9322C7.79118 15.9322 5.32777 13.4687 5.32777 10.43C5.32777 7.39119 7.79118 4.92778 10.83 4.92778C13.8687 4.92778 16.3321 7.39119 16.3321 10.43Z" fill="#FE2E00"/>
<path d="M15.9913 16.8753L19.7598 20.6439L20.8401 19.5636L17.0716 15.795L15.9913 16.8753Z" fill="#FE2E00"/>
</svg>
