<svg width="24" height="24" viewBox="0 0 24 24" fill="none" xmlns="http://www.w3.org/2000/svg">
<path fill-rule="evenodd" clip-rule="evenodd" d="M17.5687 10.4845C17.5687 14.342 14.4416 17.4691 10.5842 17.4691C6.7267 17.4691 3.59961 14.342 3.59961 10.4845C3.59961 6.62709 6.7267 3.5 10.5842 3.5C14.4416 3.5 17.5687 6.62709 17.5687 10.4845ZM16.521 10.4845C16.521 13.7634 13.863 16.4214 10.5842 16.4214C7.30532 16.4214 4.64729 13.7634 4.64729 10.4845C4.64729 7.20571 7.30532 4.54768 10.5842 4.54768C13.863 4.54768 16.521 7.20571 16.521 10.4845Z" fill="black"/>
<path d="M16.6871 16.041L15.9463 16.7819L19.6179 20.4534L20.3587 19.7126L16.6871 16.041Z" fill="black"/>
</svg>
