<svg width="24" height="24" viewBox="0 0 24 24" fill="none" xmlns="http://www.w3.org/2000/svg">
<path fill-rule="evenodd" clip-rule="evenodd" d="M17.5691 10.4845C17.5691 14.342 14.442 17.4691 10.5845 17.4691C6.72706 17.4691 3.59998 14.342 3.59998 10.4845C3.59998 6.62709 6.72706 3.5 10.5845 3.5C14.442 3.5 17.5691 6.62709 17.5691 10.4845ZM16.5214 10.4845C16.5214 13.7634 13.8634 16.4214 10.5845 16.4214C7.30568 16.4214 4.64766 13.7634 4.64766 10.4845C4.64766 7.20571 7.30568 4.54768 10.5845 4.54768C13.8634 4.54768 16.5214 7.20571 16.5214 10.4845Z" fill="black"/>
<path d="M16.6875 16.041L15.9467 16.7819L19.6182 20.4534L20.3591 19.7126L16.6875 16.041Z" fill="black"/>
</svg>
