<svg width="24" height="24" viewBox="0 0 24 24" fill="none" xmlns="http://www.w3.org/2000/svg">
<path d="M9.89518 2.6H13.9868V5.29659L15.0575 5.9084L16.9565 4.00943L19.7545 6.80746L17.6125 8.94947L16.9761 8.31308L18.4817 6.80747L16.9565 5.28223L15.2078 7.03087L13.0868 5.81888V3.5H10.7952V5.81888L8.69197 7.02071L6.74898 5.29362L5.26974 7.10158L7.01549 8.62912L5.95145 11.0232H3.49998V12.9857H5.79612V13.8857H2.59998V10.1232H5.36656L5.92368 8.86968L4.02182 7.20555L6.64614 3.99804L8.80673 5.91856L9.89518 5.29659V2.6Z" fill="black"/>
<path fill-rule="evenodd" clip-rule="evenodd" d="M12.169 15.1325C13.9317 15.1325 15.3607 13.7036 15.3607 11.9409C15.3607 10.1782 13.9317 8.74922 12.169 8.74922C10.4063 8.74922 8.97734 10.1782 8.97734 11.9409C8.97734 13.7036 10.4063 15.1325 12.169 15.1325ZM12.169 14.2325C13.4347 14.2325 14.4607 13.2065 14.4607 11.9409C14.4607 10.6752 13.4347 9.64922 12.169 9.64922C10.9034 9.64922 9.87734 10.6752 9.87734 11.9409C9.87734 13.2065 10.9034 14.2325 12.169 14.2325Z" fill="black"/>
<path d="M14.0967 21.4082V18.7116L15.1852 18.0896L17.3458 20.0102L19.9701 16.8027L18.0682 15.1385L18.6253 13.885H21.3919V10.1225H18.1958V11.0225H20.4919L20.4919 12.985H18.0404L16.9764 15.3791L18.7222 16.9066L17.2429 18.7146L15.2999 16.9875L13.1967 18.1893V20.5082L10.9051 20.5082V18.1893L8.78406 16.9773L7.03541 18.726L5.51017 17.2007L7.01576 15.6951L6.37936 15.0587L4.23739 17.2007L7.03541 19.9988L8.93438 18.0998L10.0051 18.7116V21.4082H14.0967Z" fill="black"/>
</svg>
