<svg width="24" height="24" viewBox="0 0 24 24" fill="none" xmlns="http://www.w3.org/2000/svg">
<path d="M9.89481 2.59961H13.9865V5.2962L15.0571 5.90801L16.9561 4.00905L19.7541 6.80707L17.6122 8.94908L16.9758 8.31269L18.4814 6.80708L16.9561 5.28184L15.2075 7.03049L13.0865 5.81849V3.49961H10.7948V5.81849L8.6916 7.02033L6.74861 5.29323L5.26937 7.1012L7.01512 8.62873L5.95108 11.0228H3.49961V12.9853H5.79575V13.8853H2.59961V10.1228H5.36619L5.92332 8.86929L4.02145 7.20516L6.64577 3.99765L8.80636 5.91817L9.89481 5.2962V2.59961Z" fill="#111111"/>
<path fill-rule="evenodd" clip-rule="evenodd" d="M12.1686 15.1322C13.9313 15.1322 15.3603 13.7032 15.3603 11.9405C15.3603 10.1778 13.9313 8.74883 12.1686 8.74883C10.4059 8.74883 8.97698 10.1778 8.97698 11.9405C8.97698 13.7032 10.4059 15.1322 12.1686 15.1322ZM12.1686 14.2322C13.4343 14.2322 14.4603 13.2061 14.4603 11.9405C14.4603 10.6748 13.4343 9.64883 12.1686 9.64883C10.903 9.64883 9.87698 10.6748 9.87698 11.9405C9.87698 13.2061 10.903 14.2322 12.1686 14.2322Z" fill="#111111"/>
<path d="M14.0964 21.4078V18.7112L15.1848 18.0892L17.3454 20.0098L19.9697 16.8023L18.0678 15.1381L18.625 13.8846H21.3916V10.1222H18.1954V11.0222H20.4916L20.4916 12.9846H18.0401L16.976 15.3787L18.7218 16.9062L17.2425 18.7142L15.2996 16.9871L13.1964 18.1889V20.5078L10.9047 20.5078V18.1889L8.78369 16.9769L7.03505 18.7256L5.50981 17.2003L7.01539 15.6947L6.37899 15.0583L4.23702 17.2003L7.03505 19.9984L8.93401 18.0994L10.0047 18.7112V21.4078H14.0964Z" fill="#111111"/>
</svg>
