<svg width="24" height="24" viewBox="0 0 24 24" fill="none" xmlns="http://www.w3.org/2000/svg">
<path d="M9.32336 8.90344L11.9132 3.67573C11.9495 3.60248 12.0536 3.60135 12.0915 3.67378L14.8272 8.90538C14.8418 8.93329 14.8687 8.95269 14.8998 8.95774L20.8077 9.91838C20.8882 9.93146 20.92 10.0301 20.8624 10.0878L16.6362 14.314C16.6137 14.3364 16.6033 14.3683 16.608 14.3997L17.5213 20.4081C17.5335 20.4884 17.4499 20.549 17.3774 20.5124L12.0455 17.8224C12.0171 17.8081 11.9837 17.8081 11.9554 17.8224L6.62181 20.5133C6.5496 20.5497 6.46626 20.4898 6.47779 20.4097L7.34335 14.3989C7.34781 14.3679 7.3375 14.3366 7.31548 14.3144L3.13739 10.0882C3.08014 10.0303 3.1124 9.93194 3.19283 9.91918L9.24943 8.95781C9.28142 8.95273 9.30898 8.93247 9.32336 8.90344Z" stroke="black"/>
</svg>
