<svg width="16" height="16" viewBox="0 0 16 16" fill="none" xmlns="http://www.w3.org/2000/svg">
<path d="M5.55643 4.58217L7.58934 0.275966C7.76093 -0.0875152 8.25303 -0.0931588 8.43215 0.2663L10.5876 4.59181C10.6566 4.7303 10.7838 4.82659 10.9308 4.85167L15.6025 5.64884C15.983 5.71376 16.1336 6.20353 15.861 6.48959L12.5215 9.99412C12.4152 10.1057 12.3658 10.2636 12.3883 10.4196L13.1132 15.424C13.1709 15.8226 12.7757 16.1233 12.4327 15.9417L8.21471 13.7086C8.08074 13.6377 7.92265 13.6377 7.78869 13.7086L3.56293 15.9458C3.22144 16.1266 2.82733 15.8293 2.88185 15.432L3.57018 10.4157C3.59129 10.2619 3.54252 10.1066 3.4384 9.9961L0.137096 6.49185C-0.133639 6.20447 0.0189357 5.71616 0.399258 5.65281L5.20681 4.852C5.35812 4.8268 5.48842 4.72623 5.55643 4.58217Z" fill="white"/>
</svg>
