<svg width="24" height="24" viewBox="0 0 24 24" fill="none" xmlns="http://www.w3.org/2000/svg">
<path d="M9.04076 8.17213L11.5006 3.20687C11.7082 2.78776 12.3037 2.78126 12.5204 3.19573L15.1286 8.18323C15.2121 8.34293 15.3659 8.45395 15.5438 8.48287L21.1967 9.40204C21.6571 9.4769 21.8393 10.0416 21.5095 10.3715L17.4686 14.4123C17.34 14.541 17.2802 14.7231 17.3075 14.903L18.1846 20.6733C18.2544 21.1329 17.7762 21.4796 17.3611 21.2702L12.2573 18.6953C12.0952 18.6135 11.9039 18.6135 11.7418 18.6953L6.62859 21.2749C6.21538 21.4834 5.7385 21.1406 5.80447 20.6825L6.63736 14.8985C6.6629 14.7211 6.60389 14.5421 6.47791 14.4146L2.48327 10.3741C2.15568 10.0427 2.3403 9.47967 2.80049 9.40662L8.61772 8.48325C8.8008 8.45419 8.95847 8.33824 9.04076 8.17213Z" fill="black"/>
</svg>
