<svg width="24" height="24" viewBox="0 0 24 24" fill="none" xmlns="http://www.w3.org/2000/svg">
<path fill-rule="evenodd" clip-rule="evenodd" d="M12.0117 5.44313L10.1587 9.37598C10.0839 9.53474 9.93442 9.65684 9.74777 9.68799L5.3234 10.4264L8.37523 13.6721C8.4938 13.7982 8.54469 13.969 8.52217 14.1334L7.8905 18.7457L11.7415 16.7029C11.9035 16.617 12.0971 16.617 12.2591 16.7029L16.1026 18.7417L15.437 14.1376C15.4129 13.9709 15.4644 13.7972 15.5855 13.6698L18.6741 10.4223L14.3766 9.68762C14.1954 9.65663 14.0492 9.53974 13.9731 9.38669L12.0117 5.44313ZM12.4989 4.30883L14.7292 8.79335L19.5392 9.61571C20.0086 9.69596 20.1342 10.2528 19.8473 10.5544L16.3949 14.1844L17.1422 19.3539C17.2 19.7535 16.782 20.1673 16.3338 19.9296L12.0003 17.6308L7.66537 19.9303C7.21953 20.1668 6.80176 19.7576 6.85638 19.3588L7.56503 14.1844L4.15046 10.5529C3.86582 10.2501 3.99331 9.69448 4.46289 9.61611L9.39267 8.79335L11.5006 4.31954C11.6984 3.89967 12.2911 3.89099 12.4989 4.30883Z" fill="#111111"/>
</svg>
