<svg width="24" height="24" viewBox="0 0 24 24" fill="none" xmlns="http://www.w3.org/2000/svg">
<path d="M9.32287 8.90364L11.9127 3.67592C11.949 3.60268 12.0531 3.60154 12.091 3.67398L14.8268 8.90558C14.8414 8.93349 14.8682 8.95289 14.8993 8.95794L20.8072 9.91857C20.8877 9.93166 20.9195 10.0303 20.8619 10.088L16.6357 14.3142C16.6132 14.3366 16.6028 14.3685 16.6075 14.3999L17.5208 20.4083C17.533 20.4886 17.4494 20.5492 17.3769 20.5126L12.045 17.8226C12.0167 17.8083 11.9832 17.8083 11.9549 17.8226L6.62133 20.5134C6.54911 20.5499 6.46578 20.49 6.4773 20.4099L7.34286 14.3991C7.34732 14.3681 7.33701 14.3368 7.31499 14.3146L3.1369 10.0884C3.07965 10.0305 3.11191 9.93214 3.19234 9.91937L9.24894 8.95801C9.28094 8.95293 9.30849 8.93267 9.32287 8.90364Z" stroke="black"/>
</svg>
