<svg width="24" height="24" viewBox="0 0 24 24" fill="none" xmlns="http://www.w3.org/2000/svg">
<path d="M9.04113 8.17251L11.501 3.20726C11.7086 2.78815 12.3041 2.78164 12.5208 3.19612L15.1289 8.18362C15.2125 8.34331 15.3663 8.45434 15.5442 8.48326L21.1971 9.40243C21.6575 9.47729 21.8397 10.042 21.5098 10.3719L17.469 14.4127C17.3403 14.5414 17.2805 14.7235 17.3079 14.9033L18.185 20.6737C18.2548 21.1333 17.7765 21.48 17.3615 21.2706L12.2577 18.6957C12.0956 18.6139 11.9043 18.6139 11.7422 18.6957L6.62896 21.2753C6.21575 21.4838 5.73887 21.141 5.80483 20.6829L6.63773 14.8989C6.66327 14.7215 6.60426 14.5424 6.47828 14.415L2.48364 10.3745C2.15604 10.0431 2.34066 9.48006 2.80086 9.40701L8.61808 8.48364C8.80117 8.45458 8.95883 8.33862 9.04113 8.17251Z" fill="black"/>
</svg>
