<svg width="24" height="24" viewBox="0 0 24 24" fill="none" xmlns="http://www.w3.org/2000/svg">
<path d="M17.3605 13.065C18.3145 11.8816 18.8856 10.3766 18.8856 8.7382C18.8856 4.9278 15.7966 1.83887 11.9862 1.83887C8.17585 1.83887 5.08691 4.9278 5.08691 8.7382C5.08691 10.4321 5.69739 11.9835 6.71033 13.1843L8.73358 15.8122H15.4802L17.3605 13.065Z" fill="white"/>
<path d="M14.8111 16.7773H9.14381C8.79427 16.7773 8.51092 17.0606 8.51092 17.4101C8.51092 17.7596 8.79427 18.0429 9.14381 18.0429H14.8111C15.1607 18.0429 15.444 17.7596 15.444 17.4101C15.444 17.0606 15.1607 16.7773 14.8111 16.7773Z" fill="white"/>
<path d="M14.7689 19.0178H9.18557C9.18557 19.8313 9.83831 20.4937 10.6484 20.5091C10.8177 21.1468 11.3993 21.6175 12.0902 21.6175C12.7354 21.6175 13.2685 21.1336 13.3461 20.5093H13.5033C14.2018 20.5093 14.7689 19.9422 14.7689 19.2438V19.0178Z" fill="white"/>
</svg>
