<svg width="17" height="16" viewBox="0 0 17 16" fill="none" xmlns="http://www.w3.org/2000/svg">
<path fill-rule="evenodd" clip-rule="evenodd" d="M10.6806 11.2141H16.3954V10.2096H11.0457L12.5787 5.9912H16.5V4.98676H7.24942L8.94138 0.33102L7.95404 0L6.14179 4.98676H0.604576V5.9912H5.77676L4.24373 10.2096H0.5V11.2141H9.57302L7.95404 15.669L8.94138 16L10.6806 11.2141ZM9.93804 10.2096H5.35135L6.88439 5.9912H11.4711L9.93804 10.2096Z" fill="#111111"/>
<path d="M2.41075 15.3699L3.56108 12.1557L4.55003 12.4822L3.39971 15.6964L2.41075 15.3699Z" fill="#111111"/>
<path d="M13.3343 3.84434L14.4847 0.630139L13.4957 0.303616L12.3454 3.51782L13.3343 3.84434Z" fill="#111111"/>
</svg>
