<svg width="24" height="24" viewBox="0 0 24 24" fill="none" xmlns="http://www.w3.org/2000/svg">
<path d="M11.1501 6.10496V3H12.1584V6.10496H11.1501Z" fill="#111111"/>
<path d="M8.20142 6.131V4.20317H9.20964V6.131H8.20142Z" fill="#111111"/>
<path fill-rule="evenodd" clip-rule="evenodd" d="M6.07968 9.98656V18.0917C6.1504 18.5915 6.46617 19.0591 6.89504 19.4168C7.34243 19.79 7.81756 19.965 8.07953 19.965H15.1274C15.9239 19.8082 16.3963 19.4886 16.6852 19.154C16.9731 18.8205 17.1115 18.4339 17.1739 18.0816L17.1739 9.98658L18.1822 9.98659L18.1822 11.0211H20.0352C20.8729 11.0211 22 11.8563 22 13.9466C22 14.9857 21.7162 15.6666 21.2729 16.0868C20.8415 16.4958 20.3417 16.5758 20.0882 16.6033L20.0618 16.6061H18.1822V18.1691L18.1753 18.2113C18.0951 18.7052 17.899 19.3084 17.4398 19.8404C16.9758 20.3779 16.2776 20.8025 15.2643 20.9917L15.2195 21H8.07953C7.50685 21 6.81345 20.6823 6.25926 20.2201C5.695 19.7495 5.18006 19.0504 5.07535 18.1905L5.07146 18.1585V9.98656H6.07968ZM18.1822 15.5712H20.0073C20.19 15.5492 20.4086 15.4973 20.5889 15.3264C20.7658 15.1587 20.9918 14.7925 20.9918 13.9466C20.9918 12.267 20.1713 12.0561 20.0352 12.0561H18.1822V15.5712Z" fill="#111111"/>
<path d="M13.8219 4.24198V6.16981H14.8301V4.24198H13.8219Z" fill="#111111"/>
<path d="M5 9.00292H18.1573V7.96794H5V9.00292Z" fill="#111111"/>
</svg>
