<svg width="18" height="18" viewBox="0 0 18 18" fill="none" xmlns="http://www.w3.org/2000/svg">
<path fill-rule="evenodd" clip-rule="evenodd" d="M2 0C0.895508 0 0 0.895508 0 2V16C0 17.1045 0.895508 18 2 18H16C17.1045 18 18 17.1045 18 16V2C18 0.895508 17.1045 0 16 0H2ZM2 1H16C16.2937 1 16.5581 1.12695 16.741 1.32812C16.9019 1.50586 17 1.74121 17 2V16C17 16.5527 16.5522 17 16 17H2C1.44775 17 1 16.5527 1 16V2C1 1.44727 1.44775 1 2 1Z" fill="#AAAAAA"/>
<path fill-rule="evenodd" clip-rule="evenodd" d="M2 1H16C16.2937 1 16.5581 1.12695 16.741 1.32812C16.9019 1.50586 17 1.74121 17 2V16C17 16.5527 16.5522 17 16 17H2C1.44775 17 1 16.5527 1 16V2C1 1.44727 1.44775 1 2 1Z" fill="white"/>
</svg>
