<svg width="24" height="24" viewBox="0 0 24 24" fill="none" xmlns="http://www.w3.org/2000/svg">
<path fill-rule="evenodd" clip-rule="evenodd" d="M14.6667 5.06667C14.6667 4.47756 15.1442 4 15.7333 4C16.3224 4 16.8 4.47756 16.8 5.06667V7.5H20V8.5H16.8V10.9333C16.8 11.5224 16.3224 12 15.7333 12C15.1442 12 14.6667 11.5224 14.6667 10.9333V8.5H4V7.5H14.6667V5.06667ZM7.2 13.0667C7.2 12.4776 7.67756 12 8.26667 12C8.85577 12 9.33333 12.4776 9.33333 13.0667V15.5H20V16.5H9.33333V18.9333C9.33333 19.5224 8.85577 20 8.26667 20C7.67756 20 7.2 19.5224 7.2 18.9333V16.5H4V15.5H7.2V13.0667Z" fill="#626262"/>
</svg>
